G04 #@! TF.FileFunction,Copper,L1,Top,Signal*
%FSLAX46Y46*%
G04 Gerber Fmt 4.6, Leading zero omitted, Abs format (unit mm)*
G04 Created by KiCad (PCBNEW 0.201504081001+5582~22~ubuntu14.04.1-product) date jue 23 abr 2015 20:23:44 ART*
%MOMM*%
G01*
G04 APERTURE LIST*
%ADD10C,0.100000*%
%ADD11O,1.500000X0.254000*%
%ADD12O,0.254000X1.500000*%
%ADD13R,1.000000X0.700000*%
%ADD14R,1.200000X1.150000*%
%ADD15R,1.200000X1.400000*%
%ADD16R,0.700000X1.000000*%
%ADD17R,0.900000X1.400000*%
%ADD18C,5.001260*%
%ADD19C,1.198880*%
%ADD20R,0.700000X1.300000*%
%ADD21R,1.397000X0.889000*%
%ADD22R,0.889000X1.397000*%
%ADD23R,1.300480X1.498600*%
%ADD24R,1.498600X1.300480*%
%ADD25R,2.301240X0.500380*%
%ADD26R,2.499360X1.998980*%
%ADD27C,1.501140*%
%ADD28C,2.999740*%
%ADD29R,3.500120X3.500120*%
%ADD30R,1.198880X1.198880*%
%ADD31R,1.800860X2.499360*%
%ADD32R,2.499360X1.800860*%
%ADD33C,1.506220*%
%ADD34C,1.524000*%
%ADD35R,0.254000X2.540000*%
%ADD36R,2.540000X0.254000*%
%ADD37R,1.500000X1.700000*%
%ADD38C,1.720000*%
%ADD39R,10.000000X10.000000*%
%ADD40R,1.070000X2.000000*%
%ADD41R,1.000000X0.600000*%
%ADD42C,1.000760*%
%ADD43C,1.143000*%
%ADD44R,1.397000X1.397000*%
%ADD45C,1.397000*%
%ADD46R,1.727200X2.032000*%
%ADD47O,1.727200X2.032000*%
%ADD48C,0.889000*%
%ADD49C,0.203200*%
%ADD50C,0.254000*%
G04 APERTURE END LIST*
D10*
D11*
X84260000Y-21062500D03*
X84260000Y-21562500D03*
X84260000Y-22062500D03*
X84260000Y-22562500D03*
X84260000Y-23062500D03*
X84260000Y-26062500D03*
X84260000Y-25562500D03*
X84260000Y-25062500D03*
X84260000Y-24562500D03*
X84260000Y-24062500D03*
X84260000Y-23562500D03*
X84260000Y-26562500D03*
X75760000Y-26562500D03*
X75760000Y-24062500D03*
X75760000Y-24562500D03*
X75760000Y-25062500D03*
X75760000Y-25062500D03*
X75760000Y-25562500D03*
X75760000Y-26062500D03*
X75760000Y-23562500D03*
X75760000Y-23062500D03*
X75760000Y-22562500D03*
X75760000Y-22062500D03*
X75760000Y-21562500D03*
X75760000Y-21062500D03*
D12*
X79760000Y-19562500D03*
X79260000Y-19562500D03*
X78760000Y-19562500D03*
X78260000Y-19562500D03*
X77760000Y-19562500D03*
X77260000Y-19562500D03*
X80260000Y-19562500D03*
X80760000Y-19562500D03*
X81260000Y-19562500D03*
X81760000Y-19562500D03*
X82260000Y-19562500D03*
X82760000Y-19562500D03*
X82760000Y-28062500D03*
X82260000Y-28062500D03*
X81760000Y-28062500D03*
X81260000Y-28062500D03*
X80760000Y-28062500D03*
X80260000Y-28062500D03*
X77260000Y-28062500D03*
X77760000Y-28062500D03*
X78260000Y-28062500D03*
X78760000Y-28062500D03*
X79260000Y-28062500D03*
X79760000Y-28062500D03*
D13*
X44272200Y-83396000D03*
X44272200Y-82296000D03*
X44272200Y-81196000D03*
X44272200Y-80096000D03*
X44272200Y-78996000D03*
X44272200Y-77896000D03*
X44272200Y-76796000D03*
X44272200Y-84496000D03*
D14*
X43322200Y-75396000D03*
X40622200Y-75696000D03*
D15*
X42772200Y-86146000D03*
D16*
X41622200Y-86346000D03*
D17*
X40482200Y-86146000D03*
D18*
X38277800Y-53848000D03*
D19*
X40276780Y-41087040D03*
X40276780Y-43373040D03*
X40276780Y-45664120D03*
X40276780Y-38793420D03*
X40276780Y-36504880D03*
X38778180Y-39938960D03*
X38778180Y-42227500D03*
X38778180Y-44518580D03*
X38778180Y-46809660D03*
D18*
X38277800Y-28859480D03*
D19*
X38778180Y-37647880D03*
X37277040Y-45664120D03*
X37277040Y-43373040D03*
X37279580Y-41084500D03*
X37277040Y-38793420D03*
X37277040Y-36504880D03*
D20*
X102641400Y-41236000D03*
X101371400Y-41236000D03*
X100101400Y-41236000D03*
X98831400Y-41236000D03*
X98831400Y-46736000D03*
X100101400Y-46736000D03*
X101371400Y-46736000D03*
X102641400Y-46736000D03*
D21*
X96740980Y-40723820D03*
X96740980Y-42628820D03*
X106108500Y-65913000D03*
X106108500Y-64008000D03*
D22*
X49720500Y-59207400D03*
X51625500Y-59207400D03*
X49733200Y-57378600D03*
X51638200Y-57378600D03*
D21*
X46634400Y-81089500D03*
X46634400Y-79184500D03*
D23*
X116586000Y-34163000D03*
X114681000Y-34163000D03*
X116586000Y-36449000D03*
X114681000Y-36449000D03*
X116586000Y-31940500D03*
X114681000Y-31940500D03*
D24*
X107886500Y-32702500D03*
X107886500Y-30797500D03*
X104775000Y-32702500D03*
X104775000Y-30797500D03*
D22*
X54966500Y-68642500D03*
X56871500Y-68642500D03*
D21*
X58919000Y-70440000D03*
X58919000Y-72345000D03*
X87884000Y-34163000D03*
X87884000Y-32258000D03*
D25*
X112438180Y-58813700D03*
X112438180Y-58013600D03*
X112438180Y-57213500D03*
X112438180Y-56413400D03*
X112438180Y-55613300D03*
D26*
X112537240Y-61663580D03*
X118036340Y-61663580D03*
X112537240Y-52763420D03*
X118036340Y-52763420D03*
D27*
X107759500Y-75311000D03*
X107759500Y-77851000D03*
X107759500Y-79883000D03*
X107759500Y-82423000D03*
D28*
X110426500Y-72263000D03*
X110426500Y-85979000D03*
D29*
X108861860Y-24892000D03*
X114861340Y-24892000D03*
X111861600Y-20193000D03*
D30*
X64782700Y-21486620D03*
X64782700Y-19388580D03*
X62925475Y-21486620D03*
X62925475Y-19388580D03*
X60995250Y-21486620D03*
X60995250Y-19388580D03*
X59001525Y-21486620D03*
X59001525Y-19388580D03*
D31*
X102235000Y-24925020D03*
X102235000Y-28922980D03*
D32*
X112491520Y-66294000D03*
X116489480Y-66294000D03*
D30*
X100360480Y-33274000D03*
X102458520Y-33274000D03*
D33*
X75501500Y-77978000D03*
X75501500Y-80518000D03*
X72961500Y-77978000D03*
X72961500Y-80518000D03*
X70421500Y-77978000D03*
X70421500Y-80518000D03*
X67881500Y-77978000D03*
X67881500Y-80518000D03*
X65341500Y-77978000D03*
X65341500Y-80518000D03*
D22*
X99568000Y-54292500D03*
X97663000Y-54292500D03*
D21*
X99374300Y-65956500D03*
X99374300Y-64051500D03*
X50514250Y-49117250D03*
X50514250Y-51022250D03*
X52482750Y-49117250D03*
X52482750Y-51022250D03*
X54451250Y-49117250D03*
X54451250Y-51022250D03*
X56388000Y-49149000D03*
X56388000Y-51054000D03*
X50514250Y-54514750D03*
X50514250Y-52609750D03*
X52482750Y-54514750D03*
X52482750Y-52609750D03*
X54451250Y-54514750D03*
X54451250Y-52609750D03*
X56419750Y-54514750D03*
X56419750Y-52609750D03*
X110490000Y-32639000D03*
X110490000Y-34544000D03*
X112522000Y-32639000D03*
X112522000Y-34544000D03*
D22*
X43548300Y-87858600D03*
X41643300Y-87858600D03*
D21*
X60869000Y-72345000D03*
X60869000Y-70440000D03*
D22*
X102552500Y-22098000D03*
X100647500Y-22098000D03*
X92011500Y-22098000D03*
X93916500Y-22098000D03*
D21*
X64866300Y-24752400D03*
X64866300Y-22847400D03*
X62938025Y-24752400D03*
X62938025Y-22847400D03*
X61016100Y-24752400D03*
X61016100Y-22847400D03*
X59119725Y-24752400D03*
X59119725Y-22847400D03*
D22*
X102298500Y-31369000D03*
X100393500Y-31369000D03*
D34*
X38176600Y-67234000D03*
X38176600Y-74244000D03*
X35686600Y-68489000D03*
X35686600Y-72989000D03*
X38176600Y-58039200D03*
X38176600Y-65049200D03*
X35686600Y-59294200D03*
X35686600Y-63794200D03*
X105105000Y-21311000D03*
X98095000Y-21311000D03*
X103850000Y-18821000D03*
X99350000Y-18821000D03*
X96278500Y-21311000D03*
X89268500Y-21311000D03*
X95023500Y-18821000D03*
X90523500Y-18821000D03*
D35*
X90863420Y-37719000D03*
X90363040Y-37719000D03*
X89862660Y-37719000D03*
X89362280Y-37719000D03*
X88861900Y-37719000D03*
X88361520Y-37719000D03*
X87861140Y-37719000D03*
X87360760Y-37719000D03*
X86860380Y-37719000D03*
X86360000Y-37719000D03*
X85859620Y-37719000D03*
X85359240Y-37719000D03*
X84858860Y-37719000D03*
X84358480Y-37719000D03*
X83858100Y-37719000D03*
X83357720Y-37719000D03*
X82857340Y-37719000D03*
X82356960Y-37719000D03*
X81856580Y-37719000D03*
X81356200Y-37719000D03*
X80855820Y-37719000D03*
X80355440Y-37719000D03*
X79855060Y-37719000D03*
X79354680Y-37719000D03*
X78854300Y-37719000D03*
X78353920Y-37719000D03*
X77853540Y-37719000D03*
X77353160Y-37719000D03*
X76852780Y-37719000D03*
X76352400Y-37719000D03*
X75852020Y-37719000D03*
X75351640Y-37719000D03*
X74851260Y-37719000D03*
X74350880Y-37719000D03*
X73850500Y-37719000D03*
X73350120Y-37719000D03*
X72849740Y-37719000D03*
X72349360Y-37719000D03*
X71848980Y-37719000D03*
X71348600Y-37719000D03*
X70848220Y-37719000D03*
X70347840Y-37719000D03*
X69847460Y-37719000D03*
X69347080Y-37719000D03*
X68846700Y-37719000D03*
X68346320Y-37719000D03*
X67845940Y-37719000D03*
X67345560Y-37719000D03*
X66845180Y-37719000D03*
X66344800Y-37719000D03*
X65844420Y-37719000D03*
X65344040Y-37719000D03*
D36*
X62534800Y-40454580D03*
X62534800Y-40954960D03*
X62534800Y-41455340D03*
X62534800Y-41955720D03*
X62534800Y-42456100D03*
X62534800Y-42956480D03*
X62534800Y-43456860D03*
X62534800Y-43957240D03*
X62534800Y-44457620D03*
X62534800Y-44958000D03*
X62534800Y-45458380D03*
X62534800Y-45958760D03*
X62534800Y-46459140D03*
X62534800Y-46959520D03*
X62534800Y-47459900D03*
X62534800Y-47960280D03*
X62534800Y-48460660D03*
X62534800Y-48961040D03*
X62534800Y-49461420D03*
X62534800Y-49961800D03*
X62534800Y-50462180D03*
X62534800Y-50962560D03*
X62534800Y-51462940D03*
X62534800Y-51963320D03*
X62534800Y-52463700D03*
X62534800Y-52964080D03*
X62534800Y-53464460D03*
X62534800Y-53964840D03*
X62534800Y-54465220D03*
X62534800Y-54965600D03*
X62534800Y-55465980D03*
X62534800Y-55966360D03*
X62534800Y-56466740D03*
X62534800Y-56967120D03*
X62534800Y-57467500D03*
X62534800Y-57967880D03*
X62534800Y-58468260D03*
X62534800Y-58968640D03*
X62534800Y-59469020D03*
X62534800Y-59969400D03*
X62534800Y-60469780D03*
X62534800Y-60970160D03*
X62534800Y-61470540D03*
X62534800Y-61970920D03*
X62534800Y-62471300D03*
X62534800Y-62971680D03*
X62534800Y-63472060D03*
X62534800Y-63972440D03*
X62534800Y-64472820D03*
X62534800Y-64973200D03*
X62534800Y-65473580D03*
X62534800Y-65973960D03*
D35*
X65346580Y-68910200D03*
X65846960Y-68910200D03*
X66347340Y-68910200D03*
X66847720Y-68910200D03*
X67348100Y-68910200D03*
X67848480Y-68910200D03*
X68348860Y-68910200D03*
X68849240Y-68910200D03*
X69349620Y-68910200D03*
X69850000Y-68910200D03*
X70350380Y-68910200D03*
X70850760Y-68910200D03*
X71351140Y-68910200D03*
X71851520Y-68910200D03*
X72351900Y-68910200D03*
X72852280Y-68910200D03*
X73352660Y-68910200D03*
X73853040Y-68910200D03*
X74353420Y-68910200D03*
X74853800Y-68910200D03*
X75354180Y-68910200D03*
X75854560Y-68910200D03*
X76354940Y-68910200D03*
X76855320Y-68910200D03*
X77355700Y-68910200D03*
X77856080Y-68910200D03*
X78356460Y-68910200D03*
X78856840Y-68910200D03*
X79357220Y-68910200D03*
X79857600Y-68910200D03*
X80357980Y-68910200D03*
X80858360Y-68910200D03*
X81358740Y-68910200D03*
X81859120Y-68910200D03*
X82359500Y-68910200D03*
X82859880Y-68910200D03*
X83360260Y-68910200D03*
X83860640Y-68910200D03*
X84361020Y-68910200D03*
X84861400Y-68910200D03*
X85361780Y-68910200D03*
X85862160Y-68910200D03*
X86362540Y-68910200D03*
X86862920Y-68910200D03*
X87363300Y-68910200D03*
X87863680Y-68910200D03*
X88364060Y-68910200D03*
X88864440Y-68910200D03*
X89364820Y-68910200D03*
X89865200Y-68910200D03*
X90365580Y-68910200D03*
X90865960Y-68910200D03*
D36*
X93726000Y-65971420D03*
X93726000Y-65471040D03*
X93726000Y-64970660D03*
X93726000Y-64470280D03*
X93726000Y-63969900D03*
X93726000Y-63469520D03*
X93726000Y-62969140D03*
X93726000Y-62468760D03*
X93726000Y-61968380D03*
X93726000Y-61468000D03*
X93726000Y-60967620D03*
X93726000Y-60467240D03*
X93726000Y-59966860D03*
X93726000Y-59466480D03*
X93726000Y-58966100D03*
X93726000Y-58465720D03*
X93726000Y-57965340D03*
X93726000Y-57464960D03*
X93726000Y-56964580D03*
X93726000Y-56464200D03*
X93726000Y-55963820D03*
X93726000Y-55463440D03*
X93726000Y-54963060D03*
X93726000Y-54462680D03*
X93726000Y-53962300D03*
X93726000Y-53461920D03*
X93726000Y-52961540D03*
X93726000Y-52461160D03*
X93726000Y-51960780D03*
X93726000Y-51460400D03*
X93726000Y-50960020D03*
X93726000Y-50459640D03*
X93726000Y-49959260D03*
X93726000Y-49458880D03*
X93726000Y-48958500D03*
X93726000Y-48458120D03*
X93726000Y-47957740D03*
X93726000Y-47457360D03*
X93726000Y-46956980D03*
X93726000Y-46456600D03*
X93726000Y-45956220D03*
X93726000Y-45455840D03*
X93726000Y-44955460D03*
X93726000Y-44455080D03*
X93726000Y-43954700D03*
X93726000Y-43454320D03*
X93726000Y-42953940D03*
X93726000Y-42453560D03*
X93726000Y-41953180D03*
X93726000Y-41452800D03*
X93726000Y-40952420D03*
X93726000Y-40452040D03*
D37*
X103779500Y-66230500D03*
X103779500Y-63690500D03*
X101579500Y-63690500D03*
X101579500Y-66230500D03*
D38*
X114617500Y-42038000D03*
X112585500Y-42038000D03*
X110553500Y-42038000D03*
X108521500Y-42038000D03*
X106489500Y-42038000D03*
X114617500Y-46038000D03*
X112585500Y-46038000D03*
X110553500Y-46038000D03*
X108521500Y-46038000D03*
X106489500Y-46038000D03*
X106489500Y-44038000D03*
X108521500Y-44038000D03*
X110553500Y-44038000D03*
X112585500Y-44038000D03*
X114617500Y-44038000D03*
X114617500Y-48038000D03*
X112585500Y-48038000D03*
X110553500Y-48038000D03*
X108521500Y-48038000D03*
X106489500Y-48038000D03*
X106489500Y-50038000D03*
X108521500Y-50038000D03*
X110553500Y-50038000D03*
X112585500Y-50038000D03*
X114617500Y-50038000D03*
D39*
X110553500Y-46021000D03*
D40*
X113993500Y-39081000D03*
X112323500Y-39081000D03*
X110553500Y-39081000D03*
X108833500Y-39081000D03*
X107113500Y-39081000D03*
D41*
X57069000Y-72332500D03*
X57069000Y-71342500D03*
X57069000Y-70352500D03*
X54669000Y-70352500D03*
X54669000Y-72332500D03*
D42*
X54102000Y-59232800D03*
X54102000Y-57734200D03*
D43*
X117929000Y-41077200D03*
X96732700Y-63695900D03*
X59089900Y-57638000D03*
X67716400Y-32029400D03*
X88338000Y-82187100D03*
X84210500Y-34092200D03*
X88414200Y-30434600D03*
X103463700Y-52837400D03*
X108330340Y-19050320D03*
X98679000Y-26314400D03*
X55499000Y-38354000D03*
X88315800Y-85775800D03*
X57810400Y-74168000D03*
X59013700Y-50310100D03*
X86614000Y-29972000D03*
X106105300Y-62349700D03*
D44*
X58953400Y-86995000D03*
D45*
X61493400Y-86995000D03*
X64033400Y-86995000D03*
D22*
X71437500Y-21971000D03*
X69532500Y-21971000D03*
D46*
X116713000Y-93345000D03*
D47*
X114173000Y-93345000D03*
X111633000Y-93345000D03*
X109093000Y-93345000D03*
X106553000Y-93345000D03*
X104013000Y-93345000D03*
X101473000Y-93345000D03*
X98933000Y-93345000D03*
X96393000Y-93345000D03*
X93853000Y-93345000D03*
X91313000Y-93345000D03*
X88773000Y-93345000D03*
X86233000Y-93345000D03*
X83693000Y-93345000D03*
X81153000Y-93345000D03*
X78613000Y-93345000D03*
X76073000Y-93345000D03*
X73533000Y-93345000D03*
X70993000Y-93345000D03*
X68453000Y-93345000D03*
X65913000Y-93345000D03*
X63373000Y-93345000D03*
X60833000Y-93345000D03*
X58293000Y-93345000D03*
X55753000Y-93345000D03*
X53213000Y-93345000D03*
X50673000Y-93345000D03*
X48133000Y-93345000D03*
X45593000Y-93345000D03*
X43053000Y-93345000D03*
X40513000Y-93345000D03*
X37973000Y-93345000D03*
D22*
X84645500Y-30353000D03*
X82740500Y-30353000D03*
D21*
X86360000Y-24955500D03*
X86360000Y-26860500D03*
D22*
X69532500Y-23749000D03*
X71437500Y-23749000D03*
X85661500Y-19431000D03*
X87566500Y-19431000D03*
X71437500Y-20193000D03*
X69532500Y-20193000D03*
D21*
X57480200Y-76542900D03*
X57480200Y-78447900D03*
X59207400Y-76568300D03*
X59207400Y-78473300D03*
D30*
X56997600Y-21496020D03*
X56997600Y-19397980D03*
D21*
X57073800Y-24752400D03*
X57073800Y-22847400D03*
D48*
X40522452Y-74634047D03*
X63652323Y-33196653D03*
X77216965Y-22023167D03*
X50596800Y-60805509D03*
X46685200Y-78105000D03*
X49234349Y-49234349D03*
X91567000Y-64452500D03*
X70294500Y-39751000D03*
X82042000Y-20955002D03*
X88450699Y-45143878D03*
X100852439Y-45460714D03*
X71548600Y-65575500D03*
X60319000Y-57992500D03*
X87294000Y-58517500D03*
X87744000Y-53467000D03*
X87569000Y-48192500D03*
X71144000Y-43717500D03*
X100926900Y-54190900D03*
X72961500Y-75176380D03*
X61661040Y-75156060D03*
X59687460Y-75191620D03*
X63563500Y-75244960D03*
X66111120Y-75209400D03*
X68374260Y-75267820D03*
X68991480Y-60523120D03*
X100838000Y-59055000D03*
X64767460Y-40954960D03*
X79946500Y-40703500D03*
X75247500Y-75374500D03*
X87312500Y-51435000D03*
X80137000Y-65659000D03*
X64579500Y-65532000D03*
X71564500Y-66865500D03*
X100965000Y-52197000D03*
X67119500Y-54927500D03*
X67881500Y-41465500D03*
X59880500Y-52463700D03*
X106299000Y-30797500D03*
X113665000Y-32639000D03*
X100881180Y-61849000D03*
X109791500Y-56007000D03*
X67691000Y-66598800D03*
X84582000Y-75247500D03*
X80835500Y-75311000D03*
X77787500Y-75438000D03*
X68453000Y-18923000D03*
X85725000Y-31242000D03*
X87671658Y-25231342D03*
X82785320Y-25853008D03*
X56980948Y-67099125D03*
X73367863Y-30954329D03*
X76181499Y-27852633D03*
X79844599Y-31330599D03*
X70027800Y-31115000D03*
X69974541Y-55165738D03*
X67580769Y-48842671D03*
X73115939Y-22186871D03*
X79755996Y-22085249D03*
X60896500Y-66992500D03*
X59817000Y-65976500D03*
X47904400Y-81127600D03*
X80518000Y-21209000D03*
X70358000Y-42672000D03*
X87820500Y-80899000D03*
X87820500Y-79692500D03*
X88900000Y-80899000D03*
X88900000Y-79756000D03*
X88900000Y-78549500D03*
X87820500Y-78486000D03*
X89027000Y-63563500D03*
X89090500Y-64643000D03*
X89090500Y-65659000D03*
X87249000Y-60515500D03*
X87947500Y-64706500D03*
X87947500Y-63563500D03*
X69659500Y-43561000D03*
X71437500Y-41846500D03*
X71564500Y-40703500D03*
X69786500Y-41656000D03*
X105346500Y-39081000D03*
X105791000Y-38227000D03*
X104775000Y-38227000D03*
X104775000Y-37147500D03*
X105791000Y-35179000D03*
X104775000Y-34099500D03*
X105791000Y-34099500D03*
X104775000Y-36131500D03*
X105791000Y-36195000D03*
X105791000Y-37211000D03*
X70485000Y-48006000D03*
X86677500Y-55499000D03*
X102803300Y-68306000D03*
X104775000Y-35115500D03*
X87122000Y-47180500D03*
X70485000Y-50736500D03*
X87249000Y-61912500D03*
X58496200Y-36576000D03*
X58496200Y-37566600D03*
X58483500Y-38544500D03*
X59404400Y-38544500D03*
X102577860Y-45534580D03*
X97155008Y-23368000D03*
X87630000Y-26797000D03*
X82740500Y-31559500D03*
X56157774Y-66381274D03*
X55499000Y-56616600D03*
X49212480Y-54483000D03*
X60350400Y-36550600D03*
X59410602Y-37566600D03*
X59436004Y-36576000D03*
X60375800Y-37541200D03*
X60404400Y-38544500D03*
X72936118Y-21109564D03*
X108331000Y-37084000D03*
X101777800Y-55608220D03*
X103825040Y-55608220D03*
X107886500Y-35115500D03*
X108833500Y-35052000D03*
X107886500Y-34099500D03*
X108839000Y-36195000D03*
X107886500Y-36131500D03*
X68834000Y-58610500D03*
X68961000Y-58610500D03*
X102892860Y-55608220D03*
X102890320Y-54416960D03*
X90805000Y-31369000D03*
X91630500Y-58483500D03*
X91694000Y-61912500D03*
X96456500Y-61976000D03*
X91567000Y-54038500D03*
X67220646Y-34611223D03*
X91547284Y-47129534D03*
X78844140Y-39662100D03*
X86487000Y-70993000D03*
X80835500Y-71056500D03*
X75184000Y-71056500D03*
X65849500Y-70993000D03*
X85852000Y-35369500D03*
X64770000Y-42989500D03*
X64706500Y-53149500D03*
X90995500Y-41719500D03*
X64579500Y-61023500D03*
X78536800Y-70993000D03*
X72999600Y-35077400D03*
X64957299Y-47803449D03*
X84264500Y-70993000D03*
X73342500Y-71056500D03*
X68326000Y-71056500D03*
X87884000Y-35433000D03*
X60474200Y-51237200D03*
X80899000Y-35179000D03*
X69951600Y-35077400D03*
X64770000Y-56515000D03*
X91567000Y-51498500D03*
X96456500Y-52451000D03*
X96266000Y-58928000D03*
X96329500Y-55562500D03*
X81216500Y-48704500D03*
X79819500Y-49530000D03*
X78676500Y-50355500D03*
X77724000Y-51117500D03*
X76835000Y-52705000D03*
X74422000Y-52705000D03*
X74295000Y-51117500D03*
X75120500Y-50292000D03*
X74231500Y-48704500D03*
X75184000Y-47879000D03*
X74295000Y-46291500D03*
X75247500Y-45529500D03*
X74358500Y-43942000D03*
X59744000Y-59492500D03*
X57391482Y-75312983D03*
X88571913Y-44058413D03*
X85283073Y-47320753D03*
X84200994Y-46926500D03*
X74295000Y-64262000D03*
X73152000Y-65024000D03*
X73914000Y-65913000D03*
X75057000Y-66357500D03*
X74358500Y-63119000D03*
X75120500Y-62293500D03*
X76009500Y-61595000D03*
X76898500Y-62420500D03*
X75184000Y-59880500D03*
X74295000Y-59118500D03*
X80137000Y-59880500D03*
X75247500Y-58293000D03*
X74358500Y-57531000D03*
X84455000Y-58356500D03*
X85280500Y-59309000D03*
X102654476Y-42634090D03*
X100965000Y-43688000D03*
X81280000Y-57785000D03*
X80772000Y-56705500D03*
X79946500Y-55943500D03*
X69024500Y-56642000D03*
X75120500Y-55626000D03*
X75184000Y-56769000D03*
X84391500Y-55118000D03*
X68582814Y-49277220D03*
X46844388Y-87071111D03*
X80924400Y-87376000D03*
X47593708Y-84639623D03*
X78912115Y-88001133D03*
X48374320Y-86131400D03*
X78054200Y-87325200D03*
X42646600Y-73766877D03*
X49936400Y-71196200D03*
X48717200Y-71107280D03*
X41679531Y-74411668D03*
X46439856Y-88085646D03*
X82169000Y-87731600D03*
X48374270Y-70030282D03*
X40386000Y-87528400D03*
X117919500Y-38989000D03*
X117919500Y-32067500D03*
X117919500Y-36512500D03*
X117919500Y-34226500D03*
X47049753Y-40436776D03*
X76727171Y-30763403D03*
X47091600Y-39344600D03*
X76695340Y-31855151D03*
X67462400Y-28702000D03*
X73508217Y-29727705D03*
X66433315Y-29806392D03*
X72428112Y-29565600D03*
X95634664Y-45220937D03*
X92256992Y-26936729D03*
X91821148Y-44818363D03*
X93225900Y-27440855D03*
X96012007Y-44195979D03*
X91186000Y-27343140D03*
X91694000Y-46037500D03*
X93993037Y-26663406D03*
X96833438Y-47311562D03*
X93881345Y-25511662D03*
X96012000Y-48209190D03*
X95491648Y-28096887D03*
X81407000Y-25971502D03*
X77508160Y-33781994D03*
X82475298Y-24340800D03*
X77724000Y-30273041D03*
X77156028Y-23113678D03*
X78308200Y-23139400D03*
X81280000Y-22669500D03*
X63660676Y-27745076D03*
X82524600Y-22656800D03*
D49*
X40966951Y-75078546D02*
X40522452Y-74634047D01*
X41284405Y-75396000D02*
X40966951Y-75078546D01*
X43322200Y-75396000D02*
X41284405Y-75396000D01*
X77260000Y-28062500D02*
X76391366Y-28062500D01*
X76391366Y-28062500D02*
X76181499Y-27852633D01*
X86614000Y-29972000D02*
X85026500Y-29972000D01*
X85026500Y-29972000D02*
X84645500Y-30353000D01*
X77177632Y-22062500D02*
X77216965Y-22023167D01*
X76922333Y-22023167D02*
X77216965Y-22023167D01*
X75760000Y-22562500D02*
X76383000Y-22562500D01*
X75760000Y-22062500D02*
X77177632Y-22062500D01*
X76383000Y-22562500D02*
X76922333Y-22023167D01*
X37973000Y-93345000D02*
X37973000Y-86956558D01*
X37973000Y-86956558D02*
X39788359Y-85141199D01*
X39788359Y-85141199D02*
X41176041Y-85141199D01*
X41622200Y-85587358D02*
X41622200Y-85642800D01*
X41176041Y-85141199D02*
X41622200Y-85587358D01*
X41622200Y-85642800D02*
X41622200Y-86346000D01*
X50469801Y-60210701D02*
X50469801Y-60678510D01*
X50469801Y-60678510D02*
X50596800Y-60805509D01*
X49720500Y-59207400D02*
X49720500Y-59461400D01*
X49720500Y-59461400D02*
X50469801Y-60210701D01*
X50469801Y-60210701D02*
X57814125Y-60210701D01*
X57814125Y-60210701D02*
X59587827Y-58436999D01*
X59587827Y-58436999D02*
X59874501Y-58436999D01*
X59874501Y-58436999D02*
X60319000Y-57992500D01*
X49720500Y-59207400D02*
X49720500Y-57391300D01*
X49720500Y-57391300D02*
X49733200Y-57378600D01*
X46634400Y-78155800D02*
X46685200Y-78105000D01*
X46634400Y-79184500D02*
X46634400Y-78155800D01*
X41622200Y-86346000D02*
X42175400Y-86346000D01*
X42175400Y-86346000D02*
X42392600Y-86563200D01*
X44272200Y-78996000D02*
X44811289Y-78996000D01*
X44811289Y-78996000D02*
X46445900Y-78996000D01*
X42772200Y-79792800D02*
X43569000Y-78996000D01*
X42772200Y-86146000D02*
X42772200Y-79792800D01*
X43569000Y-78996000D02*
X44811289Y-78996000D01*
X44272200Y-78996000D02*
X43973558Y-78996000D01*
X43973558Y-78996000D02*
X43322200Y-78344642D01*
X43322200Y-78344642D02*
X43322200Y-76174200D01*
X43322200Y-76174200D02*
X43322200Y-75396000D01*
X43322200Y-75396000D02*
X41729966Y-75396000D01*
X41729966Y-75396000D02*
X40922200Y-75396000D01*
X41622200Y-86346000D02*
X41622200Y-75503766D01*
X41622200Y-75503766D02*
X41729966Y-75396000D01*
X40922200Y-75396000D02*
X40622200Y-75696000D01*
X42772200Y-86146000D02*
X41822200Y-86146000D01*
X41822200Y-86146000D02*
X41622200Y-86346000D01*
X49351448Y-49117250D02*
X49234349Y-49234349D01*
X50514250Y-49117250D02*
X49351448Y-49117250D01*
X46445900Y-78996000D02*
X46634400Y-79184500D01*
X59207400Y-76568300D02*
X59207400Y-75671680D01*
X59207400Y-75671680D02*
X59687460Y-75191620D01*
X87569000Y-48192500D02*
X88450699Y-47310801D01*
X88450699Y-47310801D02*
X88450699Y-45143878D01*
X87569000Y-48192500D02*
X87569000Y-51178500D01*
X87569000Y-51178500D02*
X87312500Y-51435000D01*
X87312500Y-51435000D02*
X87312500Y-53035500D01*
X87312500Y-53035500D02*
X87744000Y-53467000D01*
X90678000Y-54419500D02*
X90678000Y-53409199D01*
X90678000Y-53409199D02*
X90678000Y-51435000D01*
X87744000Y-53467000D02*
X90620199Y-53467000D01*
X90620199Y-53467000D02*
X90678000Y-53409199D01*
X90881199Y-58463638D02*
X90881199Y-58843165D01*
X90881199Y-58123835D02*
X90881199Y-58463638D01*
X90827337Y-58517500D02*
X87294000Y-58517500D01*
X90881199Y-58463638D02*
X90827337Y-58517500D01*
X91719998Y-63469520D02*
X93726000Y-63469520D01*
X91409520Y-63469520D02*
X91719998Y-63469520D01*
X91719998Y-63469520D02*
X91719998Y-64299502D01*
X91719998Y-64299502D02*
X91567000Y-64452500D01*
X91948000Y-57594500D02*
X91410534Y-57594500D01*
X91347034Y-59309000D02*
X91884500Y-59309000D01*
X91410534Y-57594500D02*
X90881199Y-58123835D01*
X90881199Y-58843165D02*
X91347034Y-59309000D01*
X93726000Y-57965340D02*
X95199200Y-57965340D01*
X95199200Y-57965340D02*
X95300801Y-58066941D01*
X95300801Y-58066941D02*
X95300801Y-58864499D01*
X95300801Y-58864499D02*
X95199200Y-58966100D01*
X95199200Y-58966100D02*
X93726000Y-58966100D01*
X70294500Y-39687500D02*
X71501000Y-39687500D01*
X71501000Y-39687500D02*
X71848980Y-39339520D01*
X71848980Y-39339520D02*
X71848980Y-39149020D01*
X69347080Y-37719000D02*
X69342000Y-37724080D01*
X69342000Y-37724080D02*
X69342000Y-39306500D01*
X69342000Y-39306500D02*
X69723000Y-39687500D01*
X69723000Y-39687500D02*
X70294500Y-39687500D01*
X70294500Y-39687500D02*
X70294500Y-39751000D01*
X82765900Y-28440380D02*
X84645500Y-30319980D01*
X82765900Y-27940000D02*
X82765900Y-28440380D01*
X82760000Y-20515700D02*
X82760000Y-19562500D01*
X82999000Y-19562500D02*
X82760000Y-19562500D01*
X83931181Y-19562500D02*
X82999000Y-19562500D01*
X84802982Y-20434301D02*
X85405766Y-20434301D01*
X85405766Y-20434301D02*
X86817199Y-20434301D01*
X82760000Y-20865619D02*
X83191318Y-20434301D01*
X83191318Y-20434301D02*
X85405766Y-20434301D01*
X82042000Y-20955002D02*
X82670617Y-20955002D01*
X82670617Y-20955002D02*
X82760000Y-20865619D01*
X82760000Y-20865619D02*
X82760000Y-20515700D01*
X84802982Y-20434301D02*
X83931181Y-19562500D01*
X82265520Y-19740880D02*
X82265520Y-20731482D01*
X81765140Y-20678142D02*
X82042000Y-20955002D01*
X82265520Y-20731482D02*
X82042000Y-20955002D01*
X82052158Y-20955002D02*
X82042000Y-20955002D01*
X89636852Y-45143878D02*
X89079316Y-45143878D01*
X93726000Y-42953940D02*
X91826790Y-42953940D01*
X89079316Y-45143878D02*
X88450699Y-45143878D01*
X91826790Y-42953940D02*
X89636852Y-45143878D01*
X100852439Y-45441043D02*
X100852439Y-45460714D01*
X100754828Y-45343432D02*
X100852439Y-45441043D01*
X71548600Y-65575500D02*
X71564500Y-65591400D01*
X71564500Y-65591400D02*
X71564500Y-66865500D01*
X62534800Y-58468260D02*
X60794760Y-58468260D01*
X60794760Y-58468260D02*
X60319000Y-57992500D01*
X60319000Y-57992500D02*
X60343620Y-57967880D01*
X60343620Y-57967880D02*
X62534800Y-57967880D01*
X87744000Y-53467000D02*
X87744000Y-53467500D01*
X71144000Y-43717500D02*
X71144000Y-43742500D01*
X72961500Y-75176380D02*
X72958960Y-75176380D01*
X61661040Y-75156060D02*
X61678820Y-75173840D01*
X63550800Y-75257660D02*
X63550800Y-75267820D01*
X63563500Y-75244960D02*
X63550800Y-75257660D01*
X96740980Y-42628820D02*
X97438580Y-42628820D01*
X97438580Y-42628820D02*
X98831400Y-41236000D01*
X93726000Y-42953940D02*
X96415860Y-42953940D01*
X96415860Y-42953940D02*
X96740980Y-42628820D01*
X87884000Y-32258000D02*
X87820500Y-32194500D01*
X112537240Y-52763420D02*
X112537240Y-50086260D01*
X112537240Y-50086260D02*
X112585500Y-50038000D01*
X112537240Y-52763420D02*
X118036340Y-52763420D01*
X118036340Y-61663580D02*
X112537240Y-61663580D01*
X118036340Y-52763420D02*
X118036340Y-61663580D01*
X113665000Y-32639000D02*
X113982500Y-32639000D01*
X112522000Y-32639000D02*
X113665000Y-32639000D01*
X113982500Y-32639000D02*
X114681000Y-31940500D01*
X114681000Y-34163000D02*
X114681000Y-36449000D01*
X114681000Y-31940500D02*
X114681000Y-34163000D01*
X57658000Y-50863500D02*
X57658000Y-50268800D01*
X59880500Y-52463700D02*
X59258200Y-52463700D01*
X59258200Y-52463700D02*
X57658000Y-50863500D01*
X57658000Y-49530000D02*
X57277000Y-49149000D01*
X57658000Y-50268800D02*
X57658000Y-49530000D01*
X57277000Y-49149000D02*
X56388000Y-49149000D01*
X112600740Y-50053240D02*
X112585500Y-50038000D01*
X62534800Y-58468260D02*
X64262000Y-58468260D01*
X110553500Y-39081000D02*
X110553500Y-42038000D01*
X106299000Y-30797500D02*
X104775000Y-30797500D01*
X107886500Y-30797500D02*
X106299000Y-30797500D01*
X103759000Y-61849000D02*
X103779500Y-61869500D01*
X103779500Y-61869500D02*
X103779500Y-63690500D01*
X57086500Y-49149000D02*
X56388000Y-49149000D01*
X52482750Y-49117250D02*
X50514250Y-49117250D01*
X54451250Y-49117250D02*
X52482750Y-49117250D01*
X64767460Y-40954960D02*
X62534800Y-40954960D01*
X71848980Y-39149020D02*
X71848980Y-37719000D01*
X82356960Y-37719000D02*
X82356960Y-39559800D01*
X81213260Y-40703500D02*
X79946500Y-40703500D01*
X82356960Y-39559800D02*
X81213260Y-40703500D01*
X79855060Y-37719000D02*
X79855060Y-40612060D01*
X79855060Y-40612060D02*
X79946500Y-40703500D01*
X74353420Y-68910200D02*
X74353420Y-71882000D01*
X74353420Y-71882000D02*
X74353420Y-72966580D01*
X74353420Y-72966580D02*
X73596500Y-73723500D01*
X71851520Y-68910200D02*
X71851520Y-71978520D01*
X71851520Y-71978520D02*
X73596500Y-73723500D01*
X73596500Y-73723500D02*
X75247500Y-75374500D01*
X64262000Y-58468260D02*
X64721740Y-58468260D01*
X64185800Y-52463700D02*
X62534800Y-52463700D01*
X64262000Y-52387500D02*
X64185800Y-52463700D01*
X65087500Y-52387500D02*
X64262000Y-52387500D01*
X65722500Y-53022500D02*
X65087500Y-52387500D01*
X65722500Y-57467500D02*
X65722500Y-53022500D01*
X64721740Y-58468260D02*
X65722500Y-57467500D01*
X64262000Y-58468260D02*
X64262000Y-58483500D01*
X62534800Y-57967880D02*
X64063880Y-57967880D01*
X64101980Y-59469020D02*
X62534800Y-59469020D01*
X64262000Y-59309000D02*
X64101980Y-59469020D01*
X64262000Y-58166000D02*
X64262000Y-58483500D01*
X64262000Y-58483500D02*
X64262000Y-59309000D01*
X64063880Y-57967880D02*
X64262000Y-58166000D01*
X103779500Y-63690500D02*
X105791000Y-63690500D01*
X105791000Y-63690500D02*
X106108500Y-64008000D01*
X92285820Y-54462680D02*
X91948000Y-54800500D01*
X91948000Y-54800500D02*
X91948000Y-55245000D01*
X91948000Y-55245000D02*
X92166440Y-55463440D01*
X92166440Y-55463440D02*
X93726000Y-55463440D01*
X93726000Y-54462680D02*
X92285820Y-54462680D01*
X95775080Y-54462680D02*
X97088260Y-53149500D01*
X97088260Y-53149500D02*
X98425000Y-53149500D01*
X98425000Y-53149500D02*
X99568000Y-54292500D01*
X93726000Y-54462680D02*
X95775080Y-54462680D01*
X92237560Y-55463440D02*
X91948000Y-55753000D01*
X91948000Y-55753000D02*
X91948000Y-57594500D01*
X91948000Y-57594500D02*
X92318840Y-57965340D01*
X92318840Y-57965340D02*
X93726000Y-57965340D01*
X93726000Y-55463440D02*
X92237560Y-55463440D01*
X91884500Y-59309000D02*
X92227400Y-58966100D01*
X92227400Y-58966100D02*
X93726000Y-58966100D01*
X91884500Y-61023500D02*
X92329000Y-61468000D01*
X92329000Y-61468000D02*
X93726000Y-61468000D01*
X91884500Y-59309000D02*
X91884500Y-61023500D01*
X91186000Y-61023500D02*
X90741500Y-61468000D01*
X90741500Y-61468000D02*
X90741500Y-62801500D01*
X90741500Y-62801500D02*
X91409520Y-63469520D01*
X91884500Y-61023500D02*
X91186000Y-61023500D01*
X91059000Y-54800500D02*
X90678000Y-54419500D01*
X90678000Y-51435000D02*
X90678000Y-51181000D01*
X90678000Y-51181000D02*
X91122500Y-50736500D01*
X91630500Y-50736500D02*
X91884500Y-50736500D01*
X91122500Y-50736500D02*
X91630500Y-50736500D01*
X91884500Y-50736500D02*
X92108020Y-50960020D01*
X92108020Y-50960020D02*
X93726000Y-50960020D01*
X91948000Y-54800500D02*
X91059000Y-54800500D01*
X95486220Y-51960780D02*
X95567500Y-51879500D01*
X95567500Y-51435000D02*
X95567500Y-51054000D01*
X95567500Y-51879500D02*
X95567500Y-51435000D01*
X95567500Y-51054000D02*
X95473520Y-50960020D01*
X95473520Y-50960020D02*
X93726000Y-50960020D01*
X93726000Y-51960780D02*
X95486220Y-51960780D01*
X95567500Y-51460400D02*
X95567500Y-51435000D01*
X93726000Y-51460400D02*
X95567500Y-51460400D01*
X92247720Y-51960780D02*
X92138500Y-52070000D01*
X92138500Y-52070000D02*
X92138500Y-52832000D01*
X92138500Y-52832000D02*
X92268040Y-52961540D01*
X92268040Y-52961540D02*
X93726000Y-52961540D01*
X93726000Y-51960780D02*
X92247720Y-51960780D01*
X90678000Y-51435000D02*
X87312500Y-51435000D01*
X92377260Y-47957740D02*
X91630500Y-48704500D01*
X91630500Y-48704500D02*
X91630500Y-50736500D01*
X93726000Y-47957740D02*
X92377260Y-47957740D01*
X79857600Y-65938400D02*
X80137000Y-65659000D01*
X79857600Y-68910200D02*
X79857600Y-65938400D01*
X64521080Y-65473580D02*
X64579500Y-65532000D01*
X62534800Y-65473580D02*
X64521080Y-65473580D01*
X71851520Y-67152520D02*
X71564500Y-66865500D01*
X71851520Y-68910200D02*
X71851520Y-67152520D01*
X56388000Y-49149000D02*
X54483000Y-49149000D01*
X62534800Y-52463700D02*
X59880500Y-52463700D01*
X65341500Y-72961500D02*
X65341500Y-77978000D01*
X67348100Y-70954900D02*
X65341500Y-72961500D01*
X67348100Y-68910200D02*
X67348100Y-70954900D01*
X102870000Y-30797500D02*
X102298500Y-31369000D01*
X104775000Y-30797500D02*
X102870000Y-30797500D01*
X58831500Y-70352500D02*
X58919000Y-70440000D01*
X57069000Y-70352500D02*
X58831500Y-70352500D01*
X57069000Y-68840000D02*
X56871500Y-68642500D01*
X57069000Y-70352500D02*
X57069000Y-68840000D01*
X106105300Y-64004800D02*
X106108500Y-64008000D01*
X106105300Y-62349700D02*
X106105300Y-64004800D01*
X100881180Y-61849000D02*
X103759000Y-61849000D01*
X105604600Y-61849000D02*
X106105300Y-62349700D01*
X103759000Y-61849000D02*
X105604600Y-61849000D01*
X57699300Y-50310100D02*
X57658000Y-50268800D01*
X59013700Y-50310100D02*
X57699300Y-50310100D01*
X114545980Y-52763420D02*
X114617500Y-52691900D01*
X114617500Y-52691900D02*
X114617500Y-50038000D01*
X112537240Y-52763420D02*
X114545980Y-52763420D01*
X111062820Y-52763420D02*
X110553500Y-52254100D01*
X110553500Y-52254100D02*
X110553500Y-50038000D01*
X112537240Y-52763420D02*
X111062820Y-52763420D01*
X110185200Y-55613300D02*
X109791500Y-56007000D01*
X112438180Y-55613300D02*
X110185200Y-55613300D01*
X86860380Y-33281620D02*
X87884000Y-32258000D01*
X86860380Y-37719000D02*
X86860380Y-33281620D01*
X67348100Y-66941700D02*
X67691000Y-66598800D01*
X67348100Y-68910200D02*
X67348100Y-66941700D01*
X82859880Y-70769480D02*
X84582000Y-72491600D01*
X84582000Y-72491600D02*
X84582000Y-75247500D01*
X82859880Y-68910200D02*
X82859880Y-70769480D01*
X84582000Y-72542400D02*
X85361780Y-71762620D01*
X85361780Y-71762620D02*
X85361780Y-68910200D01*
X84582000Y-75247500D02*
X84582000Y-72542400D01*
X80835500Y-75311000D02*
X80835500Y-75374500D01*
X79857600Y-68910200D02*
X79857600Y-70281800D01*
X79476600Y-70662800D02*
X79476600Y-73952100D01*
X79476600Y-73952100D02*
X80835500Y-75311000D01*
X79857600Y-70281800D02*
X79476600Y-70662800D01*
X76855320Y-74505820D02*
X77787500Y-75438000D01*
X76855320Y-68910200D02*
X76855320Y-74505820D01*
X69532500Y-20193000D02*
X69532500Y-21971000D01*
X69532500Y-20193000D02*
X69532500Y-23749000D01*
X69532500Y-24003000D02*
X69532500Y-23749000D01*
X84645500Y-30319980D02*
X84645500Y-30353000D01*
X86817199Y-20434301D02*
X87566500Y-19685000D01*
X87566500Y-19685000D02*
X87566500Y-19431000D01*
X89913500Y-19431000D02*
X90523500Y-18821000D01*
X87566500Y-19431000D02*
X89913500Y-19431000D01*
X81765140Y-19740880D02*
X81765140Y-20678142D01*
X69532500Y-23749000D02*
X69532500Y-20002500D01*
X69532500Y-20002500D02*
X68897499Y-19367499D01*
X68897499Y-19367499D02*
X68453000Y-18923000D01*
X87884000Y-32258000D02*
X86741000Y-32258000D01*
X86741000Y-32258000D02*
X86169499Y-31686499D01*
X85725000Y-30784800D02*
X85725000Y-31242000D01*
X86169499Y-31686499D02*
X85725000Y-31242000D01*
X84645500Y-30353000D02*
X85293200Y-30353000D01*
X85293200Y-30353000D02*
X85725000Y-30784800D01*
X87395816Y-24955500D02*
X87671658Y-25231342D01*
X86360000Y-24955500D02*
X87395816Y-24955500D01*
X79760000Y-18927000D02*
X79760000Y-19562500D01*
X79691810Y-18858810D02*
X79760000Y-18927000D01*
X79691810Y-18760639D02*
X79691810Y-18858810D01*
X79438861Y-18507690D02*
X79691810Y-18760639D01*
X79081139Y-18507690D02*
X79438861Y-18507690D01*
X78760000Y-18828829D02*
X79081139Y-18507690D01*
X78760000Y-19562500D02*
X78760000Y-18828829D01*
X86360000Y-24955500D02*
X86106000Y-24955500D01*
X85753000Y-25562500D02*
X86360000Y-24955500D01*
X84260000Y-25562500D02*
X85753000Y-25562500D01*
X82994812Y-26062500D02*
X82785320Y-25853008D01*
X84260000Y-26062500D02*
X82994812Y-26062500D01*
X83075828Y-25562500D02*
X82785320Y-25853008D01*
X84260000Y-25562500D02*
X83075828Y-25562500D01*
X56871500Y-68642500D02*
X56871500Y-67208573D01*
X56871500Y-67208573D02*
X56980948Y-67099125D01*
X79317883Y-40703500D02*
X79946500Y-40703500D01*
X75890118Y-40703500D02*
X79317883Y-40703500D01*
X74350880Y-39164262D02*
X75890118Y-40703500D01*
X74350880Y-37719000D02*
X74350880Y-39164262D01*
X77760000Y-28062500D02*
X77260000Y-28062500D01*
X70205600Y-31115000D02*
X70027800Y-31115000D01*
X70327520Y-30993080D02*
X70205600Y-31115000D01*
X65197238Y-46459140D02*
X67580769Y-48842671D01*
X62534800Y-46459140D02*
X65197238Y-46459140D01*
X75760000Y-22062500D02*
X73240310Y-22062500D01*
X73240310Y-22062500D02*
X73115939Y-22186871D01*
X73491568Y-22562500D02*
X73115939Y-22186871D01*
X75760000Y-22562500D02*
X73491568Y-22562500D01*
X79766160Y-19740880D02*
X79755996Y-19751044D01*
X79755996Y-19751044D02*
X79755996Y-21456632D01*
X79755996Y-21456632D02*
X79755996Y-22085249D01*
X62534800Y-64973200D02*
X60820300Y-64973200D01*
X60820300Y-64973200D02*
X59817000Y-65976500D01*
X61026040Y-65973960D02*
X60896500Y-66103500D01*
X60896500Y-66103500D02*
X60896500Y-66992500D01*
X62534800Y-65973960D02*
X61026040Y-65973960D01*
X59880500Y-65976500D02*
X60896500Y-66992500D01*
X59817000Y-65976500D02*
X59880500Y-65976500D01*
X47866300Y-81089500D02*
X47904400Y-81127600D01*
X46634400Y-81089500D02*
X47866300Y-81089500D01*
X71437500Y-23749000D02*
X71437500Y-24650700D01*
X71437500Y-24650700D02*
X71335899Y-24752301D01*
X71335899Y-24752301D02*
X68844159Y-24752301D01*
X68844159Y-24752301D02*
X65686941Y-21595083D01*
X65686941Y-21595083D02*
X65686941Y-19490181D01*
X65686941Y-19490181D02*
X65585340Y-19388580D01*
X65585340Y-19388580D02*
X64782700Y-19388580D01*
X56997600Y-19397980D02*
X64773300Y-19397980D01*
X64773300Y-19397980D02*
X64782700Y-19388580D01*
X56997600Y-19397980D02*
X62916075Y-19397980D01*
X62916075Y-19397980D02*
X62925475Y-19388580D01*
X56997600Y-19397980D02*
X60985850Y-19397980D01*
X60985850Y-19397980D02*
X60995250Y-19388580D01*
X56997600Y-19397980D02*
X58992125Y-19397980D01*
X58992125Y-19397980D02*
X59001525Y-19388580D01*
X56255988Y-71452312D02*
X56365800Y-71342500D01*
X56642172Y-75079572D02*
X56255988Y-74693388D01*
X56255988Y-74693388D02*
X56255988Y-71452312D01*
X57480200Y-76542900D02*
X56642172Y-75704872D01*
X56642172Y-75704872D02*
X56642172Y-75079572D01*
X43548300Y-87858600D02*
X43548300Y-87604600D01*
X43548300Y-87604600D02*
X43764200Y-87388700D01*
X43764200Y-87388700D02*
X43764200Y-85386642D01*
X43569000Y-81196000D02*
X44272200Y-81196000D01*
X43764200Y-85386642D02*
X43467399Y-85089841D01*
X43467399Y-85089841D02*
X43467399Y-81297601D01*
X43467399Y-81297601D02*
X43569000Y-81196000D01*
X44272200Y-81196000D02*
X46527900Y-81196000D01*
X46527900Y-81196000D02*
X46634400Y-81089500D01*
X56365800Y-71342500D02*
X57069000Y-71342500D01*
X80764380Y-20962620D02*
X80518000Y-21209000D01*
X80764380Y-19740880D02*
X80764380Y-20962620D01*
X80264000Y-19740880D02*
X80264000Y-20955000D01*
X80264000Y-20955000D02*
X80518000Y-21209000D01*
X56710358Y-71342500D02*
X57069000Y-71342500D01*
X105791000Y-35179000D02*
X105791000Y-35115500D01*
X104775000Y-34099500D02*
X104775000Y-32702500D01*
X104775000Y-35115500D02*
X104775000Y-34099500D01*
X104775000Y-34099500D02*
X105791000Y-34099500D01*
X105791000Y-35115500D02*
X104775000Y-34099500D01*
X104775000Y-35115500D02*
X105791000Y-34099500D01*
X105791000Y-34099500D02*
X105791000Y-35179000D01*
X105791000Y-36195000D02*
X105791000Y-36131500D01*
X105727500Y-35115500D02*
X105791000Y-35179000D01*
X104775000Y-35115500D02*
X105727500Y-35115500D01*
X104775000Y-36131500D02*
X104775000Y-35115500D01*
X105791000Y-36131500D02*
X104775000Y-35115500D01*
X105791000Y-35179000D02*
X105727500Y-35179000D01*
X105791000Y-37147500D02*
X104775000Y-36131500D01*
X105791000Y-37211000D02*
X105791000Y-37147500D01*
X104838500Y-36195000D02*
X104775000Y-36131500D01*
X105791000Y-36195000D02*
X104838500Y-36195000D01*
X104775000Y-37147500D02*
X104775000Y-36131500D01*
X105727500Y-35179000D02*
X104775000Y-36131500D01*
X104838500Y-37147500D02*
X105791000Y-36195000D01*
X105791000Y-35179000D02*
X105791000Y-36195000D01*
X105791000Y-36195000D02*
X105791000Y-37211000D01*
X104775000Y-38227000D02*
X105791000Y-37211000D01*
X105791000Y-37211000D02*
X105791000Y-38227000D01*
X104775000Y-37147500D02*
X104838500Y-37147500D01*
X104838500Y-37147500D02*
X105727500Y-37147500D01*
X105727500Y-37147500D02*
X105791000Y-37211000D01*
X104775000Y-37147500D02*
X104775000Y-37211000D01*
X104775000Y-37211000D02*
X105791000Y-38227000D01*
X105791000Y-38227000D02*
X105791000Y-39052500D01*
X104775000Y-32702500D02*
X105219500Y-32702500D01*
X105219500Y-32702500D02*
X105791000Y-33274000D01*
X105791000Y-33274000D02*
X105791000Y-39052500D01*
X105791000Y-39052500D02*
X105791000Y-39081000D01*
X104775000Y-32702500D02*
X104775000Y-38227000D01*
X104775000Y-38227000D02*
X104775000Y-38735000D01*
X105121000Y-39081000D02*
X105346500Y-39081000D01*
X105346500Y-39081000D02*
X105791000Y-39081000D01*
X105791000Y-39081000D02*
X107113500Y-39081000D01*
X104775000Y-38735000D02*
X105121000Y-39081000D01*
X52482750Y-54514750D02*
X50514250Y-54514750D01*
X54451250Y-54514750D02*
X52482750Y-54514750D01*
X56419750Y-54514750D02*
X54451250Y-54514750D01*
X106108500Y-65913000D02*
X106108500Y-66357500D01*
X106108500Y-66357500D02*
X104965500Y-67500500D01*
X104965500Y-67500500D02*
X102849500Y-67500500D01*
X102849500Y-67500500D02*
X101579500Y-66230500D01*
X104203500Y-33274000D02*
X104775000Y-32702500D01*
X102458520Y-33274000D02*
X104203500Y-33274000D01*
X59966500Y-71342500D02*
X60869000Y-70440000D01*
X57069000Y-71342500D02*
X59966500Y-71342500D01*
X102849500Y-68259800D02*
X102803300Y-68306000D01*
X102849500Y-67500500D02*
X102849500Y-68259800D01*
X102641400Y-46736000D02*
X102641400Y-45598120D01*
X102641400Y-45598120D02*
X102577860Y-45534580D01*
X93916500Y-22098000D02*
X94272108Y-21742392D01*
X94272108Y-21742392D02*
X95046792Y-21742392D01*
X95046792Y-21742392D02*
X95935800Y-22631400D01*
X95935800Y-22631400D02*
X96672400Y-23368000D01*
X98933000Y-22098000D02*
X100647500Y-22098000D01*
X97663000Y-23368000D02*
X98933000Y-22098000D01*
X96672400Y-23368000D02*
X97663000Y-23368000D01*
X96672400Y-23368000D02*
X97155008Y-23368000D01*
X86360000Y-26860500D02*
X87566500Y-26860500D01*
X87566500Y-26860500D02*
X87630000Y-26797000D01*
X82260000Y-28970800D02*
X82260000Y-28062500D01*
X82740500Y-29451300D02*
X82260000Y-28970800D01*
X83306800Y-26562500D02*
X84260000Y-26562500D01*
X82328190Y-27260639D02*
X83026329Y-26562500D01*
X82328190Y-29038990D02*
X82328190Y-27260639D01*
X82740500Y-29451300D02*
X82328190Y-29038990D01*
X83026329Y-26562500D02*
X83306800Y-26562500D01*
X82740500Y-30353000D02*
X82740500Y-29451300D01*
X86062000Y-26562500D02*
X86360000Y-26860500D01*
X84260000Y-26562500D02*
X86062000Y-26562500D01*
X82740500Y-30353000D02*
X82740500Y-31559500D01*
X55925402Y-70902102D02*
X55925402Y-67242263D01*
X56157774Y-67009891D02*
X56157774Y-66381274D01*
X55925402Y-67242263D02*
X56157774Y-67009891D01*
X56365800Y-71342500D02*
X55925402Y-70902102D01*
X50514250Y-54514750D02*
X49244230Y-54514750D01*
X49244230Y-54514750D02*
X49212480Y-54483000D01*
X72491619Y-21554063D02*
X72936118Y-21109564D01*
X72263000Y-23571200D02*
X72263000Y-21782682D01*
X72263000Y-21782682D02*
X72491619Y-21554063D01*
X74045171Y-21590000D02*
X73564735Y-21109564D01*
X71437500Y-23749000D02*
X72085200Y-23749000D01*
X72085200Y-23749000D02*
X72263000Y-23571200D01*
X75915520Y-21590000D02*
X74045171Y-21590000D01*
X73564735Y-21109564D02*
X72936118Y-21109564D01*
X110490000Y-32639000D02*
X107950000Y-32639000D01*
X107950000Y-32639000D02*
X107886500Y-32702500D01*
X107886500Y-35115500D02*
X108770000Y-35115500D01*
X108833500Y-35046500D02*
X107886500Y-34099500D01*
X108833500Y-35052000D02*
X108833500Y-35046500D01*
X108833500Y-36004500D02*
X108833500Y-35052000D01*
X108833500Y-35052000D02*
X108833500Y-35184500D01*
X108833500Y-35184500D02*
X107886500Y-36131500D01*
X108770000Y-35115500D02*
X108833500Y-35052000D01*
X108839000Y-36195000D02*
X107950000Y-36195000D01*
X107886500Y-36639500D02*
X107886500Y-36131500D01*
X107886500Y-36131500D02*
X107886500Y-35115500D01*
X107950000Y-36195000D02*
X107886500Y-36131500D01*
X108331000Y-37084000D02*
X108331000Y-36703000D01*
X107886500Y-36639500D02*
X108331000Y-37084000D01*
X108833500Y-36004500D02*
X108833500Y-36189500D01*
X108833500Y-36189500D02*
X108839000Y-36195000D01*
X108839000Y-36068000D02*
X107886500Y-35115500D01*
X108839000Y-36195000D02*
X108839000Y-36068000D01*
X108331000Y-36703000D02*
X108839000Y-36195000D01*
X107886500Y-35115500D02*
X107886500Y-34099500D01*
X108833500Y-37586500D02*
X108833500Y-36004500D01*
X107886500Y-33972500D02*
X107886500Y-32702500D01*
X107886500Y-34099500D02*
X107886500Y-33972500D01*
X108833500Y-39081000D02*
X108833500Y-37586500D01*
X108833500Y-37586500D02*
X107886500Y-36639500D01*
X68961000Y-58610500D02*
X68834000Y-58610500D01*
X95849440Y-54963060D02*
X96520000Y-54292500D01*
X96520000Y-54292500D02*
X97663000Y-54292500D01*
X93726000Y-54963060D02*
X95849440Y-54963060D01*
X91648280Y-58465720D02*
X91630500Y-58483500D01*
X93726000Y-58465720D02*
X91648280Y-58465720D01*
X91749880Y-61968380D02*
X91694000Y-61912500D01*
X93726000Y-61968380D02*
X91749880Y-61968380D01*
X96456500Y-61976000D02*
X96448880Y-61968380D01*
X96448880Y-61968380D02*
X93726000Y-61968380D01*
X93726000Y-53962300D02*
X91643200Y-53962300D01*
X91643200Y-53962300D02*
X91567000Y-54038500D01*
X67665145Y-35055722D02*
X67220646Y-34611223D01*
X67811362Y-35201939D02*
X67665145Y-35055722D01*
X67811362Y-36211222D02*
X67811362Y-35201939D01*
X67845940Y-36245800D02*
X67811362Y-36211222D01*
X67845940Y-37719000D02*
X67845940Y-36245800D01*
X93726000Y-46956980D02*
X91719838Y-46956980D01*
X91719838Y-46956980D02*
X91547284Y-47129534D01*
X78854300Y-37719000D02*
X78854300Y-39651940D01*
X78854300Y-39651940D02*
X78844140Y-39662100D01*
X93726000Y-41452800D02*
X95272860Y-41452800D01*
X96001840Y-40723820D02*
X96740980Y-40723820D01*
X95272860Y-41452800D02*
X96001840Y-40723820D01*
X86362540Y-68910200D02*
X86362540Y-70868540D01*
X86362540Y-70868540D02*
X86487000Y-70993000D01*
X80858360Y-68910200D02*
X80858360Y-71033640D01*
X80858360Y-71033640D02*
X80835500Y-71056500D01*
X75354180Y-68910200D02*
X75354180Y-70886320D01*
X75354180Y-70886320D02*
X75184000Y-71056500D01*
X65846960Y-68910200D02*
X65846960Y-70990460D01*
X65846960Y-70990460D02*
X65849500Y-70993000D01*
X85859620Y-37719000D02*
X85859620Y-35377120D01*
X85859620Y-35377120D02*
X85852000Y-35369500D01*
X62534800Y-42956480D02*
X64736980Y-42956480D01*
X64736980Y-42956480D02*
X64770000Y-42989500D01*
X62534800Y-52964080D02*
X64521080Y-52964080D01*
X64521080Y-52964080D02*
X64706500Y-53149500D01*
X91262200Y-41452800D02*
X90995500Y-41719500D01*
X93726000Y-41452800D02*
X91262200Y-41452800D01*
X64025780Y-60469780D02*
X64579500Y-61023500D01*
X62534800Y-60469780D02*
X64025780Y-60469780D01*
X67868800Y-36703000D02*
X67845940Y-37719000D01*
X67868800Y-37696140D02*
X67868800Y-36703000D01*
X67845940Y-37719000D02*
X67868800Y-37696140D01*
X77856080Y-70312280D02*
X78536800Y-70993000D01*
X77856080Y-68910200D02*
X77856080Y-70312280D01*
X73350120Y-37719000D02*
X73350120Y-35427920D01*
X73350120Y-35427920D02*
X72999600Y-35077400D01*
X62534800Y-47459900D02*
X64613750Y-47459900D01*
X64613750Y-47459900D02*
X64957299Y-47803449D01*
X87884000Y-34163000D02*
X87884000Y-35433000D01*
X84361020Y-68910200D02*
X84361020Y-70896480D01*
X84361020Y-70896480D02*
X84264500Y-70993000D01*
X73352660Y-68910200D02*
X73352660Y-71046340D01*
X73352660Y-71046340D02*
X73342500Y-71056500D01*
X68348860Y-71033640D02*
X68348860Y-68910200D01*
X68326000Y-71056500D02*
X68348860Y-71033640D01*
X87861140Y-35455860D02*
X87861140Y-37719000D01*
X87884000Y-35433000D02*
X87861140Y-35455860D01*
X60748840Y-50962560D02*
X60474200Y-51237200D01*
X62534800Y-50962560D02*
X60748840Y-50962560D01*
X89150800Y-31171200D02*
X88414200Y-30434600D01*
X89150800Y-33800100D02*
X89150800Y-31171200D01*
X88787900Y-34163000D02*
X89150800Y-33800100D01*
X87884000Y-34163000D02*
X88787900Y-34163000D01*
X80855820Y-35222180D02*
X80899000Y-35179000D01*
X80855820Y-37719000D02*
X80855820Y-35222180D01*
X70347840Y-37719000D02*
X70347840Y-35473640D01*
X70347840Y-35473640D02*
X69951600Y-35077400D01*
X62534800Y-56466740D02*
X64721740Y-56466740D01*
X64721740Y-56466740D02*
X64770000Y-56515000D01*
X92133420Y-53461920D02*
X91567000Y-52895500D01*
X91567000Y-52895500D02*
X91567000Y-51498500D01*
X93726000Y-53461920D02*
X92133420Y-53461920D01*
X96456500Y-52451000D02*
X96446340Y-52461160D01*
X96446340Y-52461160D02*
X93726000Y-52461160D01*
X93726000Y-59466480D02*
X95727520Y-59466480D01*
X95727520Y-59466480D02*
X96266000Y-58928000D01*
X95928180Y-55963820D02*
X96329500Y-55562500D01*
X93726000Y-55963820D02*
X95928180Y-55963820D01*
X51625500Y-59207400D02*
X54076600Y-59207400D01*
X54076600Y-59207400D02*
X54102000Y-59232800D01*
X60004516Y-56718214D02*
X57324230Y-56718214D01*
X57324230Y-56718214D02*
X54809644Y-59232800D01*
X60756370Y-55966360D02*
X60004516Y-56718214D01*
X54809644Y-59232800D02*
X54102000Y-59232800D01*
X62534800Y-55966360D02*
X60756370Y-55966360D01*
X51638200Y-57378600D02*
X53746400Y-57378600D01*
X53746400Y-57378600D02*
X54102000Y-57734200D01*
X55490366Y-57734200D02*
X54809644Y-57734200D01*
X56912762Y-56311804D02*
X55490366Y-57734200D01*
X60682000Y-55465980D02*
X59836176Y-56311804D01*
X59836176Y-56311804D02*
X56912762Y-56311804D01*
X54809644Y-57734200D02*
X54102000Y-57734200D01*
X62534800Y-55465980D02*
X60682000Y-55465980D01*
X96005940Y-62969140D02*
X96732700Y-63695900D01*
X93726000Y-62969140D02*
X96005940Y-62969140D01*
X96732700Y-64178500D02*
X96732700Y-63695900D01*
X98510700Y-65956500D02*
X96732700Y-64178500D01*
X99374300Y-65956500D02*
X98510700Y-65956500D01*
X101218500Y-64051500D02*
X101579500Y-63690500D01*
X99374300Y-64051500D02*
X101218500Y-64051500D01*
X88049088Y-41871912D02*
X88549216Y-41871912D01*
X90863420Y-39192200D02*
X90863420Y-37719000D01*
X81216500Y-48704500D02*
X88049088Y-41871912D01*
X90863420Y-39557708D02*
X90863420Y-39192200D01*
X88549216Y-41871912D02*
X90863420Y-39557708D01*
X88380876Y-41465502D02*
X87395438Y-41465502D01*
X80263999Y-49085501D02*
X79819500Y-49530000D01*
X80263999Y-48596941D02*
X80263999Y-49085501D01*
X90363040Y-37719000D02*
X90363040Y-39483338D01*
X90363040Y-39483338D02*
X88380876Y-41465502D01*
X87395438Y-41465502D02*
X80263999Y-48596941D01*
X89862660Y-37719000D02*
X89862660Y-39408968D01*
X78676500Y-49609680D02*
X78676500Y-49726883D01*
X78676500Y-49726883D02*
X78676500Y-50355500D01*
X89862660Y-39408968D02*
X88212536Y-41059092D01*
X87227087Y-41059093D02*
X78676500Y-49609680D01*
X88212536Y-41059092D02*
X87227087Y-41059093D01*
X89362280Y-39334598D02*
X88044194Y-40652684D01*
X89362280Y-37719000D02*
X89362280Y-39334598D01*
X88044194Y-40652684D02*
X87058746Y-40652684D01*
X87058746Y-40652684D02*
X77724000Y-49987430D01*
X77724000Y-49987430D02*
X77724000Y-50488883D01*
X77724000Y-50488883D02*
X77724000Y-51117500D01*
X87875854Y-40246274D02*
X86890405Y-40246275D01*
X86890405Y-40246275D02*
X76835000Y-50301680D01*
X88861900Y-39260228D02*
X87875854Y-40246274D01*
X76835000Y-52076383D02*
X76835000Y-52705000D01*
X88861900Y-37719000D02*
X88861900Y-39260228D01*
X76835000Y-50301680D02*
X76835000Y-52076383D01*
X74866499Y-52260501D02*
X74422000Y-52705000D01*
X76290514Y-50271416D02*
X76290514Y-50836486D01*
X76290514Y-50836486D02*
X74866499Y-52260501D01*
X88361520Y-39185858D02*
X87707512Y-39839866D01*
X87707512Y-39839866D02*
X86722064Y-39839866D01*
X88361520Y-37719000D02*
X88361520Y-39185858D01*
X86722064Y-39839866D02*
X76290514Y-50271416D01*
X87119504Y-39433456D02*
X87360760Y-39192200D01*
X75884104Y-50103076D02*
X86553724Y-39433456D01*
X75374490Y-51117500D02*
X75884104Y-50607886D01*
X87360760Y-39192200D02*
X87360760Y-37719000D01*
X74295000Y-51117500D02*
X75374490Y-51117500D01*
X75884104Y-50607886D02*
X75884104Y-50103076D01*
X86553724Y-39433456D02*
X87119504Y-39433456D01*
X86360000Y-37719000D02*
X86360000Y-39052430D01*
X86360000Y-39052430D02*
X75564999Y-49847431D01*
X75564999Y-49847431D02*
X75564999Y-49847501D01*
X75564999Y-49847501D02*
X75120500Y-50292000D01*
X85359240Y-39431220D02*
X76149460Y-48641000D01*
X76149460Y-48641000D02*
X74295000Y-48641000D01*
X74295000Y-48641000D02*
X74231500Y-48704500D01*
X85359240Y-37719000D02*
X85359240Y-39431220D01*
X75184000Y-47879000D02*
X76336720Y-47879000D01*
X76336720Y-47879000D02*
X84858860Y-39356860D01*
X84858860Y-39356860D02*
X84858860Y-37719000D01*
X84358480Y-39282500D02*
X77349480Y-46291500D01*
X77349480Y-46291500D02*
X74295000Y-46291500D01*
X84358480Y-37719000D02*
X84358480Y-39282500D01*
X75247500Y-45529500D02*
X77536740Y-45529500D01*
X77536740Y-45529500D02*
X83858100Y-39208140D01*
X83858100Y-39208140D02*
X83858100Y-37719000D01*
X83357720Y-39133780D02*
X78549500Y-43942000D01*
X78549500Y-43942000D02*
X74358500Y-43942000D01*
X83357720Y-37719000D02*
X83357720Y-39133780D01*
X62534800Y-58968640D02*
X60267860Y-58968640D01*
X60267860Y-58968640D02*
X59744000Y-59492500D01*
X56921582Y-74784232D02*
X57391482Y-75254132D01*
X57069000Y-72332500D02*
X57069000Y-72835700D01*
X57391482Y-75254132D02*
X57391482Y-75312983D01*
X57069000Y-72835700D02*
X56921582Y-72983118D01*
X56921582Y-72983118D02*
X56921582Y-74784232D01*
X60869000Y-72345000D02*
X61005000Y-72345000D01*
X65369000Y-65892500D02*
X65369000Y-60592500D01*
X61005000Y-72345000D02*
X64869000Y-68481000D01*
X64869000Y-68481000D02*
X64869000Y-66392500D01*
X64869000Y-66392500D02*
X65369000Y-65892500D01*
X65369000Y-60592500D02*
X64745900Y-59969400D01*
X64745900Y-59969400D02*
X62534800Y-59969400D01*
X58906500Y-72332500D02*
X58919000Y-72345000D01*
X57069000Y-72332500D02*
X58906500Y-72332500D01*
X58919000Y-72345000D02*
X60869000Y-72345000D01*
X69349620Y-76062140D02*
X68703760Y-76708000D01*
X68703760Y-76708000D02*
X67119500Y-76708000D01*
X67119500Y-76708000D02*
X66611500Y-77216000D01*
X66611500Y-77216000D02*
X66611500Y-79248000D01*
X66611500Y-79248000D02*
X65341500Y-80518000D01*
X69349620Y-68910200D02*
X69349620Y-76062140D01*
X69850000Y-76136500D02*
X69151500Y-76835000D01*
X69151500Y-76835000D02*
X69151500Y-79248000D01*
X69151500Y-79248000D02*
X70421500Y-80518000D01*
X69850000Y-68910200D02*
X69850000Y-76136500D01*
X70350380Y-76128880D02*
X71691500Y-77470000D01*
X71691500Y-77470000D02*
X71691500Y-81153000D01*
X71691500Y-81153000D02*
X71056500Y-81788000D01*
X71056500Y-81788000D02*
X69151500Y-81788000D01*
X69151500Y-81788000D02*
X67881500Y-80518000D01*
X70350380Y-68910200D02*
X70350380Y-76128880D01*
X70850760Y-76054520D02*
X71504240Y-76708000D01*
X71504240Y-76708000D02*
X73723500Y-76708000D01*
X73723500Y-76708000D02*
X74231500Y-77216000D01*
X74231500Y-77216000D02*
X74231500Y-79248000D01*
X74231500Y-79248000D02*
X75501500Y-80518000D01*
X70850760Y-68910200D02*
X70850760Y-76054520D01*
X71351140Y-75980160D02*
X71672578Y-76301598D01*
X71672578Y-76301598D02*
X75984098Y-76301598D01*
X75984098Y-76301598D02*
X76771500Y-77089000D01*
X76771500Y-77089000D02*
X76771500Y-81280000D01*
X76771500Y-81280000D02*
X76263500Y-81788000D01*
X76263500Y-81788000D02*
X73342500Y-81788000D01*
X73342500Y-81788000D02*
X72961500Y-81407000D01*
X72961500Y-81407000D02*
X72961500Y-80518000D01*
X71351140Y-68910200D02*
X71351140Y-75980160D01*
X92252800Y-41953180D02*
X90147567Y-44058413D01*
X90147567Y-44058413D02*
X89200530Y-44058413D01*
X93726000Y-41953180D02*
X92252800Y-41953180D01*
X89200530Y-44058413D02*
X88571913Y-44058413D01*
X93726000Y-40952420D02*
X90618208Y-40952420D01*
X85283073Y-46692136D02*
X85283073Y-47320753D01*
X90618208Y-40952420D02*
X85283073Y-46287555D01*
X85283073Y-46287555D02*
X85283073Y-46692136D01*
X84645493Y-46482001D02*
X84200994Y-46926500D01*
X84645493Y-46350385D02*
X84645493Y-46482001D01*
X90543838Y-40452040D02*
X84645493Y-46350385D01*
X93726000Y-40452040D02*
X90543838Y-40452040D01*
X72351900Y-64554100D02*
X72644000Y-64262000D01*
X72644000Y-64262000D02*
X74295000Y-64262000D01*
X72351900Y-68910200D02*
X72351900Y-64554100D01*
X73152000Y-65024000D02*
X72852280Y-65323720D01*
X72852280Y-65323720D02*
X72852280Y-68910200D01*
X73914000Y-65780920D02*
X73914000Y-65913000D01*
X73853040Y-65973960D02*
X73914000Y-65913000D01*
X73853040Y-68910200D02*
X73853040Y-65973960D01*
X75057000Y-66357500D02*
X74853800Y-66560700D01*
X74853800Y-66560700D02*
X74853800Y-68910200D01*
X75854560Y-64615060D02*
X74358500Y-63119000D01*
X75854560Y-68910200D02*
X75854560Y-64615060D01*
X75120500Y-62293500D02*
X78356460Y-65529460D01*
X78356460Y-65529460D02*
X78356460Y-68910200D01*
X78856840Y-65455100D02*
X75946000Y-62544260D01*
X75946000Y-62544260D02*
X75946000Y-61658500D01*
X75946000Y-61658500D02*
X76009500Y-61595000D01*
X78856840Y-68910200D02*
X78856840Y-65455100D01*
X79357220Y-65380740D02*
X76898500Y-62922020D01*
X76898500Y-62922020D02*
X76898500Y-62420500D01*
X79357220Y-68910200D02*
X79357220Y-65380740D01*
X81859120Y-62250580D02*
X80657442Y-61048902D01*
X80657442Y-61048902D02*
X78228762Y-61048902D01*
X78228762Y-61048902D02*
X77060360Y-59880500D01*
X77060360Y-59880500D02*
X75184000Y-59880500D01*
X81859120Y-68910200D02*
X81859120Y-62250580D01*
X82359500Y-62176220D02*
X80825780Y-60642500D01*
X80825780Y-60642500D02*
X78473300Y-60642500D01*
X78473300Y-60642500D02*
X76949300Y-59118500D01*
X76949300Y-59118500D02*
X74295000Y-59118500D01*
X82359500Y-68910200D02*
X82359500Y-62176220D01*
X83360260Y-62602240D02*
X80638520Y-59880500D01*
X80638520Y-59880500D02*
X80137000Y-59880500D01*
X83360260Y-68910200D02*
X83360260Y-62602240D01*
X75247500Y-58293000D02*
X75280870Y-58326370D01*
X75280870Y-58326370D02*
X79659130Y-58326370D01*
X79659130Y-58326370D02*
X83860640Y-62527880D01*
X83860640Y-62527880D02*
X83860640Y-68910200D01*
X84861400Y-62953900D02*
X79438500Y-57531000D01*
X79438500Y-57531000D02*
X74358500Y-57531000D01*
X84861400Y-68910200D02*
X84861400Y-62953900D01*
X85862160Y-63379920D02*
X84455000Y-61972760D01*
X84455000Y-61972760D02*
X84455000Y-58356500D01*
X85862160Y-68910200D02*
X85862160Y-63379920D01*
X85280500Y-59309000D02*
X85315490Y-59343990D01*
X85315490Y-59343990D02*
X85315490Y-62258510D01*
X85315490Y-62258510D02*
X86862920Y-63805940D01*
X86862920Y-63805940D02*
X86862920Y-68910200D01*
X102641400Y-41236000D02*
X102641400Y-42621014D01*
X102641400Y-42621014D02*
X102654476Y-42634090D01*
X100336383Y-43688000D02*
X100965000Y-43688000D01*
X95213238Y-45970258D02*
X98054125Y-45970258D01*
X95199200Y-45956220D02*
X95213238Y-45970258D01*
X98054125Y-45970258D02*
X100336383Y-43688000D01*
X93726000Y-45956220D02*
X95199200Y-45956220D01*
X101371400Y-41046400D02*
X101371400Y-41236000D01*
X98298000Y-40259000D02*
X100584000Y-40259000D01*
X98064320Y-40492680D02*
X98298000Y-40259000D01*
X100584000Y-40259000D02*
X101371400Y-41046400D01*
X98064320Y-41381680D02*
X98064320Y-40492680D01*
X97759520Y-41686480D02*
X98064320Y-41381680D01*
X95930720Y-41686480D02*
X97759520Y-41686480D01*
X95163640Y-42453560D02*
X95930720Y-41686480D01*
X93726000Y-42453560D02*
X95163640Y-42453560D01*
X100101400Y-41536000D02*
X101097689Y-42532289D01*
X102120711Y-43286995D02*
X103327180Y-44493464D01*
X103327180Y-44493464D02*
X103327180Y-47542320D01*
X100101400Y-41236000D02*
X100101400Y-41536000D01*
X101097689Y-42532289D02*
X101493006Y-42532290D01*
X102120711Y-43159995D02*
X102120711Y-43286995D01*
X101410620Y-49458880D02*
X95199200Y-49458880D01*
X101493006Y-42532290D02*
X102120711Y-43159995D01*
X103327180Y-47542320D02*
X101410620Y-49458880D01*
X95199200Y-49458880D02*
X93726000Y-49458880D01*
X101714301Y-44047665D02*
X101070665Y-44691301D01*
X98831400Y-45882800D02*
X98831400Y-46736000D01*
X100022899Y-44691301D02*
X98831400Y-45882800D01*
X101714301Y-43328335D02*
X101714301Y-44047665D01*
X100478335Y-42938699D02*
X101324665Y-42938699D01*
X97131704Y-43444738D02*
X97141286Y-43454320D01*
X99962714Y-43454320D02*
X100478335Y-42938699D01*
X95199200Y-43454320D02*
X95208782Y-43444738D01*
X95208782Y-43444738D02*
X97131704Y-43444738D01*
X101070665Y-44691301D02*
X100022899Y-44691301D01*
X101324665Y-42938699D02*
X101714301Y-43328335D01*
X97141286Y-43454320D02*
X99962714Y-43454320D01*
X93726000Y-43454320D02*
X95199200Y-43454320D01*
X100101400Y-47376080D02*
X100101400Y-46736000D01*
X98313240Y-47731680D02*
X99745800Y-47731680D01*
X93726000Y-46456600D02*
X97038160Y-46456600D01*
X97038160Y-46456600D02*
X98313240Y-47731680D01*
X99745800Y-47731680D02*
X100101400Y-47376080D01*
X101371400Y-47472600D02*
X101371400Y-46736000D01*
X99885500Y-48958500D02*
X101371400Y-47472600D01*
X93726000Y-48958500D02*
X99885500Y-48958500D01*
X64054432Y-47960280D02*
X64671653Y-48577501D01*
X70878696Y-53860696D02*
X80086196Y-53860696D01*
X62534800Y-47960280D02*
X64054432Y-47960280D01*
X64671653Y-48577501D02*
X65595501Y-48577501D01*
X65595501Y-48577501D02*
X70878696Y-53860696D01*
X81724499Y-55498999D02*
X81724499Y-57340501D01*
X81724499Y-57340501D02*
X81280000Y-57785000D01*
X80086196Y-53860696D02*
X81724499Y-55498999D01*
X65024012Y-49504610D02*
X65947860Y-49504610D01*
X80772000Y-56076883D02*
X80772000Y-56705500D01*
X70710356Y-54267106D02*
X79413106Y-54267106D01*
X62534800Y-48460660D02*
X63980062Y-48460660D01*
X63980062Y-48460660D02*
X65024012Y-49504610D01*
X80772000Y-55626000D02*
X80772000Y-56076883D01*
X65947860Y-49504610D02*
X70710356Y-54267106D01*
X79413106Y-54267106D02*
X80772000Y-55626000D01*
X64008000Y-51462940D02*
X62534800Y-51462940D01*
X78676516Y-54673516D02*
X70542016Y-54673516D01*
X67331440Y-51462940D02*
X64008000Y-51462940D01*
X70542016Y-54673516D02*
X67331440Y-51462940D01*
X79946500Y-55943500D02*
X78676516Y-54673516D01*
X67257070Y-51963320D02*
X69024500Y-53730750D01*
X69024500Y-53730750D02*
X69024500Y-56013383D01*
X62534800Y-51963320D02*
X67257070Y-51963320D01*
X69024500Y-56013383D02*
X69024500Y-56642000D01*
X67848480Y-68910200D02*
X67848480Y-67533520D01*
X74609260Y-55626000D02*
X75120500Y-55626000D01*
X71348598Y-58886662D02*
X74609260Y-55626000D01*
X71348598Y-64014222D02*
X71348598Y-58886662D01*
X68818060Y-66544760D02*
X71348598Y-64014222D01*
X68837240Y-66544760D02*
X68818060Y-66544760D01*
X67848480Y-67533520D02*
X68837240Y-66544760D01*
X68849240Y-68910200D02*
X68849240Y-67164520D01*
X74041000Y-56769000D02*
X75184000Y-56769000D01*
X71755000Y-59055000D02*
X74041000Y-56769000D01*
X71755000Y-64258760D02*
X71755000Y-59055000D01*
X68849240Y-67164520D02*
X71755000Y-64258760D01*
X89852500Y-64262000D02*
X89852500Y-60769207D01*
X84391500Y-55118000D02*
X84391500Y-56723966D01*
X84391500Y-56723966D02*
X87433733Y-59766199D01*
X87433733Y-59766199D02*
X88849492Y-59766199D01*
X88849492Y-59766199D02*
X89852500Y-60769207D01*
X93726000Y-65471040D02*
X91061540Y-65471040D01*
X91061540Y-65471040D02*
X89852500Y-64262000D01*
X112438180Y-58813700D02*
X113804700Y-58813700D01*
X110731300Y-58813700D02*
X112438180Y-58813700D01*
X110553500Y-58991500D02*
X110731300Y-58813700D01*
X110553500Y-59563000D02*
X110553500Y-58991500D01*
X110871000Y-59880500D02*
X110553500Y-59563000D01*
X113919000Y-59880500D02*
X110871000Y-59880500D01*
X114173000Y-59626500D02*
X113919000Y-59880500D01*
X114173000Y-59182000D02*
X114173000Y-59626500D01*
X113804700Y-58813700D02*
X114173000Y-59182000D01*
X112438180Y-58813700D02*
X112387380Y-58864500D01*
X112387380Y-58864500D02*
X111887000Y-58864500D01*
X111887000Y-58864500D02*
X112438180Y-58813700D01*
X112491520Y-66294000D02*
X113982500Y-66294000D01*
X113982500Y-66294000D02*
X113919000Y-66294000D01*
X113919000Y-66294000D02*
X113982500Y-66294000D01*
X112491520Y-66294000D02*
X112491520Y-67851020D01*
X112491520Y-67851020D02*
X112776000Y-68135500D01*
X112776000Y-68135500D02*
X113855500Y-68135500D01*
X113855500Y-68135500D02*
X113982500Y-68008500D01*
X113982500Y-68008500D02*
X113982500Y-66294000D01*
X113982500Y-66294000D02*
X113982500Y-64325500D01*
X113982500Y-64325500D02*
X113728500Y-64071500D01*
X113728500Y-64071500D02*
X112839500Y-64071500D01*
X112839500Y-64071500D02*
X112491520Y-64419480D01*
X112491520Y-64419480D02*
X112491520Y-66294000D01*
X112438180Y-58813700D02*
X110032800Y-58813700D01*
X110032800Y-58813700D02*
X109601000Y-59245500D01*
X109601000Y-59245500D02*
X109601000Y-65532000D01*
X109601000Y-65532000D02*
X110363000Y-66294000D01*
X110363000Y-66294000D02*
X112491520Y-66294000D01*
X93726000Y-56464200D02*
X107873800Y-56464200D01*
X107873800Y-56464200D02*
X109410500Y-54927500D01*
X109410500Y-54927500D02*
X113855500Y-54927500D01*
X113855500Y-54927500D02*
X114173000Y-55245000D01*
X114173000Y-55245000D02*
X114173000Y-58547000D01*
X114173000Y-58547000D02*
X113906300Y-58813700D01*
X113906300Y-58813700D02*
X112438180Y-58813700D01*
X93726000Y-57464960D02*
X106486960Y-57464960D01*
X106486960Y-57464960D02*
X107035600Y-58013600D01*
X107035600Y-58013600D02*
X112438180Y-58013600D01*
X112438180Y-57213500D02*
X106934000Y-57213500D01*
X106934000Y-57213500D02*
X106685080Y-56964580D01*
X106685080Y-56964580D02*
X93726000Y-56964580D01*
X93726000Y-60967620D02*
X106408220Y-60967620D01*
X106408220Y-60967620D02*
X107505500Y-62064900D01*
X107505500Y-62064900D02*
X107505500Y-69786500D01*
X107505500Y-69786500D02*
X105791000Y-71501000D01*
X105791000Y-71501000D02*
X105791000Y-78930500D01*
X105791000Y-78930500D02*
X106743500Y-79883000D01*
X106743500Y-79883000D02*
X107759500Y-79883000D01*
X107759500Y-77851000D02*
X107061000Y-77851000D01*
X107061000Y-77851000D02*
X106299000Y-77089000D01*
X106299000Y-77089000D02*
X106299000Y-71691500D01*
X106299000Y-71691500D02*
X107950000Y-70040500D01*
X107950000Y-70040500D02*
X107950000Y-61899800D01*
X107950000Y-61899800D02*
X106517440Y-60467240D01*
X106517440Y-60467240D02*
X93726000Y-60467240D01*
X68846700Y-35859416D02*
X68643489Y-35656205D01*
X68643489Y-35656205D02*
X68643489Y-32956489D01*
X68287899Y-32600899D02*
X67716400Y-32029400D01*
X68643489Y-32956489D02*
X68287899Y-32600899D01*
X68846700Y-37719000D02*
X68846700Y-35859416D01*
X68846700Y-49013334D02*
X68582814Y-49277220D01*
X68846700Y-37719000D02*
X68846700Y-49013334D01*
X44272200Y-83396000D02*
X45473800Y-83396000D01*
X45473800Y-83396000D02*
X46844388Y-84766588D01*
X46844388Y-84766588D02*
X46844388Y-86442494D01*
X46844388Y-86442494D02*
X46844388Y-87071111D01*
X80924400Y-87376000D02*
X81584801Y-86715599D01*
X81584801Y-86715599D02*
X81584801Y-72914767D01*
X80357980Y-70383400D02*
X80357980Y-68910200D01*
X81584801Y-72914767D02*
X80086199Y-71416165D01*
X80086199Y-71416165D02*
X80086199Y-70696835D01*
X80086199Y-70696835D02*
X80357980Y-70425054D01*
X80357980Y-70425054D02*
X80357980Y-70383400D01*
X44272200Y-82296000D02*
X45878702Y-82296000D01*
X47593708Y-84011006D02*
X47593708Y-84639623D01*
X45878702Y-82296000D02*
X47593708Y-84011006D01*
X77355700Y-68910200D02*
X77355700Y-73897234D01*
X77355700Y-73897234D02*
X78912115Y-75453649D01*
X78912115Y-75453649D02*
X78912115Y-88001133D01*
X48818819Y-80958453D02*
X48818819Y-85686901D01*
X47956366Y-80096000D02*
X48818819Y-80958453D01*
X44272200Y-80096000D02*
X47956366Y-80096000D01*
X48818819Y-85686901D02*
X48374320Y-86131400D01*
X78054200Y-87325200D02*
X77177910Y-86448910D01*
X77177910Y-86448910D02*
X77177910Y-75937376D01*
X77177910Y-75937376D02*
X76354940Y-75114406D01*
X76354940Y-75114406D02*
X76354940Y-70383400D01*
X76354940Y-70383400D02*
X76354940Y-68910200D01*
X58324749Y-48367949D02*
X49041051Y-48367949D01*
X62534800Y-50462180D02*
X60418980Y-50462180D01*
X60418980Y-50462180D02*
X58324749Y-48367949D01*
X49041051Y-48367949D02*
X47625000Y-49784000D01*
X47625000Y-49784000D02*
X47625000Y-61112400D01*
X47625000Y-61112400D02*
X49530000Y-63017400D01*
X49530000Y-63017400D02*
X49530000Y-70637400D01*
X49530000Y-70637400D02*
X50088800Y-71196200D01*
X50088800Y-71196200D02*
X49936400Y-71196200D01*
X44272200Y-77896000D02*
X44975400Y-77896000D01*
X44975400Y-77896000D02*
X45135800Y-77735600D01*
X45135800Y-77735600D02*
X45135800Y-74885583D01*
X45135800Y-74885583D02*
X44017094Y-73766877D01*
X44017094Y-73766877D02*
X43275217Y-73766877D01*
X43275217Y-73766877D02*
X42646600Y-73766877D01*
X49123590Y-70700890D02*
X48717200Y-71107280D01*
X61061600Y-49961800D02*
X59061340Y-47961540D01*
X49123590Y-63185740D02*
X49123590Y-70700890D01*
X47218591Y-61280741D02*
X49123590Y-63185740D01*
X48872710Y-47961540D02*
X47218590Y-49615660D01*
X59061340Y-47961540D02*
X48872710Y-47961540D01*
X62534800Y-49961800D02*
X61061600Y-49961800D01*
X47218590Y-49615660D02*
X47218591Y-61280741D01*
X41784062Y-74516199D02*
X41679531Y-74411668D01*
X44166041Y-74516199D02*
X41784062Y-74516199D01*
X44272200Y-74622358D02*
X44166041Y-74516199D01*
X44272200Y-76796000D02*
X44272200Y-74622358D01*
X44272200Y-84496000D02*
X45354600Y-84496000D01*
X45354600Y-84496000D02*
X45897800Y-85039200D01*
X45897800Y-85039200D02*
X45897800Y-87543590D01*
X45897800Y-87543590D02*
X45995357Y-87641147D01*
X45995357Y-87641147D02*
X46439856Y-88085646D01*
X81358740Y-68910200D02*
X81358740Y-70470774D01*
X81358740Y-70470774D02*
X82169000Y-71281034D01*
X82169000Y-71281034D02*
X82169000Y-87731600D01*
X62534800Y-48961040D02*
X61061600Y-48961040D01*
X61061600Y-48961040D02*
X59655690Y-47555130D01*
X46799501Y-61455301D02*
X48691800Y-63347600D01*
X59655690Y-47555130D02*
X48704369Y-47555131D01*
X48704369Y-47555131D02*
X46799501Y-49459999D01*
X46799501Y-49459999D02*
X46799501Y-61455301D01*
X48691800Y-63347600D02*
X48691800Y-69712752D01*
X48691800Y-69712752D02*
X48374270Y-70030282D01*
X41643300Y-87858600D02*
X40716200Y-87858600D01*
X40716200Y-87858600D02*
X40386000Y-87528400D01*
X40386000Y-87528400D02*
X40386000Y-86242200D01*
X40386000Y-86242200D02*
X40482200Y-86146000D01*
X112323500Y-39081000D02*
X112323500Y-34742500D01*
X112323500Y-34742500D02*
X112522000Y-34544000D01*
X110490000Y-34544000D02*
X112522000Y-34544000D01*
X55519000Y-71682500D02*
X55519000Y-69195000D01*
X54869000Y-72332500D02*
X55519000Y-71682500D01*
X55519000Y-69195000D02*
X54966500Y-68642500D01*
X54669000Y-72332500D02*
X54869000Y-72332500D01*
X103214281Y-93281500D02*
X103949500Y-93281500D01*
X90865960Y-70383400D02*
X93599000Y-73116440D01*
X93599000Y-89649000D02*
X94754960Y-90804960D01*
X93599000Y-73116440D02*
X93599000Y-89649000D01*
X90865960Y-68910200D02*
X90865960Y-70383400D01*
X94754960Y-90804960D02*
X100737741Y-90804960D01*
X100737741Y-90804960D02*
X103214281Y-93281500D01*
X90365580Y-70480330D02*
X93192590Y-73307340D01*
X93192590Y-73307340D02*
X93192590Y-89817340D01*
X93192590Y-89817340D02*
X94586620Y-91211370D01*
X94586620Y-91211370D02*
X98604151Y-91211370D01*
X90365580Y-68910200D02*
X90365580Y-70480330D01*
X98604151Y-91211370D02*
X100674281Y-93281500D01*
X100674281Y-93281500D02*
X101409500Y-93281500D01*
X92786180Y-89985680D02*
X94418280Y-91617780D01*
X96470561Y-91617780D02*
X98134281Y-93281500D01*
X89865200Y-70554700D02*
X92786180Y-73475680D01*
X94418280Y-91617780D02*
X96470561Y-91617780D01*
X98134281Y-93281500D02*
X98869500Y-93281500D01*
X89865200Y-68910200D02*
X89865200Y-70554700D01*
X92786180Y-73475680D02*
X92786180Y-89985680D01*
X89364820Y-68910200D02*
X89364820Y-70629070D01*
X89364820Y-70629070D02*
X92379770Y-73644020D01*
X92379770Y-73644020D02*
X92379770Y-90154020D01*
X95072190Y-92024190D02*
X96329500Y-93281500D01*
X94249940Y-92024190D02*
X95072190Y-92024190D01*
X92379770Y-90154020D02*
X94249940Y-92024190D01*
X91973360Y-73812360D02*
X88864440Y-70703440D01*
X93789500Y-92138500D02*
X91973360Y-90322360D01*
X88864440Y-70703440D02*
X88864440Y-70383400D01*
X91973360Y-90322360D02*
X91973360Y-73812360D01*
X93789500Y-93281500D02*
X93789500Y-92138500D01*
X88864440Y-70383400D02*
X88864440Y-68910200D01*
X86982304Y-88481064D02*
X91249500Y-92748260D01*
X91249500Y-92748260D02*
X91249500Y-93281500D01*
X86982304Y-75028676D02*
X86982304Y-88481064D01*
X88364060Y-73646920D02*
X86982304Y-75028676D01*
X88364060Y-68910200D02*
X88364060Y-73646920D01*
X86575902Y-90399402D02*
X88709500Y-92533000D01*
X88709500Y-92533000D02*
X88709500Y-93281500D01*
X86575902Y-74860338D02*
X86575902Y-90399402D01*
X87863680Y-73572560D02*
X86575902Y-74860338D01*
X87863680Y-68910200D02*
X87863680Y-73572560D01*
X86169500Y-74692000D02*
X86169500Y-93281500D01*
X87363300Y-73498200D02*
X86169500Y-74692000D01*
X87363300Y-68910200D02*
X87363300Y-73498200D01*
X113919000Y-93091000D02*
X114109500Y-93281500D01*
X105383031Y-91186000D02*
X112014000Y-91186000D01*
X98120230Y-83923199D02*
X105383031Y-91186000D01*
X98120230Y-66751230D02*
X98120230Y-83923199D01*
X112014000Y-91186000D02*
X113919000Y-93091000D01*
X95338900Y-63969900D02*
X98120230Y-66751230D01*
X93726000Y-63969900D02*
X95338900Y-63969900D01*
X105214691Y-91592410D02*
X109880410Y-91592410D01*
X97713820Y-84091539D02*
X105214691Y-91592410D01*
X97713820Y-66919570D02*
X97713820Y-84091539D01*
X109880410Y-91592410D02*
X111633000Y-93345000D01*
X95264530Y-64470280D02*
X97713820Y-66919570D01*
X93726000Y-64470280D02*
X95264530Y-64470280D01*
X107746820Y-91998820D02*
X109093000Y-93345000D01*
X105046351Y-91998820D02*
X107746820Y-91998820D01*
X97307411Y-84259880D02*
X105046351Y-91998820D01*
X97307410Y-67087910D02*
X97307411Y-84259880D01*
X95190160Y-64970660D02*
X97307410Y-67087910D01*
X93726000Y-64970660D02*
X95190160Y-64970660D01*
X105754281Y-93281500D02*
X106489500Y-93281500D01*
X96901000Y-67310000D02*
X96901000Y-84428219D01*
X95562420Y-65971420D02*
X96901000Y-67310000D01*
X96901000Y-84428219D02*
X105754281Y-93281500D01*
X93726000Y-65971420D02*
X95562420Y-65971420D01*
X56235762Y-75247904D02*
X56235762Y-78810682D01*
X58679604Y-81254524D02*
X64500574Y-81254524D01*
X64500574Y-81254524D02*
X74051010Y-90804960D01*
X56235762Y-78810682D02*
X58679604Y-81254524D01*
X53864199Y-72876341D02*
X56235762Y-75247904D01*
X53864199Y-67565885D02*
X53864199Y-72876341D01*
X56957264Y-64472820D02*
X53864199Y-67565885D01*
X62534800Y-64472820D02*
X56957264Y-64472820D01*
X83693000Y-93192600D02*
X83693000Y-93345000D01*
X74051010Y-90804960D02*
X81305360Y-90804960D01*
X81305360Y-90804960D02*
X83693000Y-93192600D01*
X64332234Y-81660934D02*
X58426853Y-81660934D01*
X58426853Y-81660934D02*
X55829352Y-79063433D01*
X53457797Y-73044680D02*
X53457797Y-67397537D01*
X81153000Y-93192600D02*
X79171770Y-91211370D01*
X53457797Y-67397537D02*
X56882894Y-63972440D01*
X73882670Y-91211370D02*
X64332234Y-81660934D01*
X55829352Y-79063433D02*
X55829352Y-75416235D01*
X61061600Y-63972440D02*
X62534800Y-63972440D01*
X56882894Y-63972440D02*
X61061600Y-63972440D01*
X55829352Y-75416235D02*
X53457797Y-73044680D01*
X81153000Y-93345000D02*
X81153000Y-93192600D01*
X79171770Y-91211370D02*
X73882670Y-91211370D01*
X53051387Y-73213020D02*
X53051387Y-67229197D01*
X56808524Y-63472060D02*
X61061600Y-63472060D01*
X78613000Y-93345000D02*
X78613000Y-93192600D01*
X55422944Y-79231775D02*
X55422944Y-75584577D01*
X53051387Y-67229197D02*
X56808524Y-63472060D01*
X55422944Y-75584577D02*
X53051387Y-73213020D01*
X73714329Y-91617779D02*
X64163894Y-82067344D01*
X64163894Y-82067344D02*
X58258512Y-82067343D01*
X61061600Y-63472060D02*
X62534800Y-63472060D01*
X58258512Y-82067343D02*
X55422944Y-79231775D01*
X77038180Y-91617780D02*
X73714329Y-91617779D01*
X78613000Y-93192600D02*
X77038180Y-91617780D01*
X56734154Y-62971680D02*
X61061600Y-62971680D01*
X76073000Y-93345000D02*
X76073000Y-93192600D01*
X61061600Y-62971680D02*
X62534800Y-62971680D01*
X55016534Y-75752917D02*
X52644977Y-73381360D01*
X74904590Y-92024190D02*
X73545988Y-92024188D01*
X73545988Y-92024188D02*
X63995554Y-82473754D01*
X76073000Y-93192600D02*
X74904590Y-92024190D01*
X52644977Y-67060857D02*
X56734154Y-62971680D01*
X63995554Y-82473754D02*
X58090173Y-82473754D01*
X55016534Y-79400115D02*
X55016534Y-75752917D01*
X58090173Y-82473754D02*
X55016534Y-79400115D01*
X52644977Y-73381360D02*
X52644977Y-67060857D01*
X54610124Y-79568455D02*
X57921833Y-82880164D01*
X63827214Y-82880164D02*
X72466200Y-91519150D01*
X72466200Y-92125800D02*
X73533000Y-93192600D01*
X54610124Y-75921257D02*
X54610124Y-79568455D01*
X52238565Y-66381568D02*
X52238565Y-73549698D01*
X56148833Y-62471300D02*
X52238565Y-66381568D01*
X62534800Y-62471300D02*
X56148833Y-62471300D01*
X73533000Y-93192600D02*
X73533000Y-93345000D01*
X57921833Y-82880164D02*
X63827214Y-82880164D01*
X52238565Y-73549698D02*
X54610124Y-75921257D01*
X72466200Y-91519150D02*
X72466200Y-92125800D01*
X63658874Y-83286574D02*
X57753493Y-83286574D01*
X70993000Y-90620700D02*
X63658874Y-83286574D01*
X51832155Y-66213228D02*
X56074463Y-61970920D01*
X56074463Y-61970920D02*
X61061600Y-61970920D01*
X70993000Y-93345000D02*
X70993000Y-90620700D01*
X51832155Y-73718038D02*
X51832155Y-66213228D01*
X61061600Y-61970920D02*
X62534800Y-61970920D01*
X54203714Y-79736795D02*
X54203714Y-76089597D01*
X54203714Y-76089597D02*
X51832155Y-73718038D01*
X57753493Y-83286574D02*
X54203714Y-79736795D01*
X68453000Y-92125800D02*
X68453000Y-93345000D01*
X68453000Y-88655450D02*
X68453000Y-92125800D01*
X53797304Y-76257938D02*
X53797304Y-79905135D01*
X51425745Y-73886379D02*
X53797304Y-76257938D01*
X62534800Y-61470540D02*
X56000093Y-61470540D01*
X57682289Y-83790120D02*
X63587670Y-83790120D01*
X63587670Y-83790120D02*
X68453000Y-88655450D01*
X51425745Y-66044888D02*
X51425745Y-73886379D01*
X53797304Y-79905135D02*
X57682289Y-83790120D01*
X56000093Y-61470540D02*
X51425745Y-66044888D01*
X53390894Y-80073475D02*
X53390894Y-76426278D01*
X51019334Y-74054718D02*
X51019336Y-65876547D01*
X53390894Y-76426278D02*
X51019334Y-74054718D01*
X57546327Y-84228908D02*
X53390894Y-80073475D01*
X65913000Y-93345000D02*
X65913000Y-86690200D01*
X55925723Y-60970160D02*
X61061600Y-60970160D01*
X63451708Y-84228908D02*
X57546327Y-84228908D01*
X65913000Y-86690200D02*
X63451708Y-84228908D01*
X61061600Y-60970160D02*
X62534800Y-60970160D01*
X51019336Y-65876547D02*
X55925723Y-60970160D01*
X52171664Y-76931301D02*
X52171664Y-87071264D01*
X62534800Y-45458380D02*
X48210323Y-45458380D01*
X52171664Y-87071264D02*
X58293000Y-93192600D01*
X45440592Y-70200229D02*
X52171664Y-76931301D01*
X45440592Y-48228111D02*
X45440592Y-70200229D01*
X58293000Y-93192600D02*
X58293000Y-93345000D01*
X48210323Y-45458380D02*
X45440592Y-48228111D01*
X55753000Y-93192600D02*
X55753000Y-93345000D01*
X62534800Y-44958000D02*
X48135953Y-44958000D01*
X45034182Y-70368569D02*
X51765254Y-77099641D01*
X48135953Y-44958000D02*
X45034182Y-48059771D01*
X51765254Y-77099641D02*
X51765254Y-89204854D01*
X45034182Y-48059771D02*
X45034182Y-70368569D01*
X51765254Y-89204854D02*
X55753000Y-93192600D01*
X62534800Y-44457620D02*
X48061582Y-44457620D01*
X44627772Y-47891431D02*
X44627773Y-70536910D01*
X48061582Y-44457620D02*
X44627772Y-47891431D01*
X44627773Y-70536910D02*
X47344337Y-73253483D01*
X47344337Y-73253483D02*
X51358845Y-77267995D01*
X51358846Y-91338446D02*
X53213000Y-93192600D01*
X53213000Y-93192600D02*
X53213000Y-93345000D01*
X51358845Y-77267995D02*
X51358846Y-91338446D01*
X62534800Y-43957240D02*
X47987212Y-43957240D01*
X47987212Y-43957240D02*
X44196000Y-47748452D01*
X44196000Y-47748452D02*
X44196000Y-70679887D01*
X44196000Y-70679887D02*
X48175777Y-74659675D01*
X48175777Y-74659675D02*
X50952436Y-77436336D01*
X50952436Y-77436336D02*
X50952437Y-91846363D01*
X50952437Y-91846363D02*
X50673000Y-92125800D01*
X50673000Y-92125800D02*
X50673000Y-93345000D01*
X103850000Y-18821000D02*
X103850000Y-20800500D01*
X103850000Y-20800500D02*
X102552500Y-22098000D01*
X102552500Y-22352000D02*
X102552500Y-22098000D01*
X101648260Y-23256240D02*
X102552500Y-22352000D01*
X99679760Y-23256240D02*
X101648260Y-23256240D01*
X97561410Y-33969270D02*
X97561410Y-25374590D01*
X104140000Y-40547860D02*
X97561410Y-33969270D01*
X104140000Y-47879000D02*
X104140000Y-40547860D01*
X97561410Y-25374590D02*
X99679760Y-23256240D01*
X101559360Y-50459640D02*
X104140000Y-47879000D01*
X93726000Y-50459640D02*
X101559360Y-50459640D01*
X92011500Y-22098000D02*
X92011500Y-21833000D01*
X92011500Y-21833000D02*
X95023500Y-18821000D01*
X92011500Y-22098000D02*
X92011500Y-22669500D01*
X101484990Y-49959260D02*
X103733590Y-47710660D01*
X93726000Y-49959260D02*
X101484990Y-49959260D01*
X97155000Y-25400000D02*
X94996000Y-23241000D01*
X103733590Y-40716200D02*
X97155000Y-34137610D01*
X103733590Y-47710660D02*
X103733590Y-40716200D01*
X97155000Y-34137610D02*
X97155000Y-25400000D01*
X94996000Y-23241000D02*
X92456000Y-23241000D01*
X92456000Y-23241000D02*
X92011500Y-22796500D01*
X92011500Y-22796500D02*
X92011500Y-22098000D01*
X64866300Y-22847400D02*
X64866300Y-21570220D01*
X64866300Y-21570220D02*
X64782700Y-21486620D01*
X62925475Y-21486620D02*
X62925475Y-22834850D01*
X62925475Y-22834850D02*
X62938025Y-22847400D01*
X61016100Y-22847400D02*
X61016100Y-21507470D01*
X61016100Y-21507470D02*
X60995250Y-21486620D01*
X59001525Y-21486620D02*
X59001525Y-22729200D01*
X59001525Y-22729200D02*
X59119725Y-22847400D01*
X102235000Y-28922980D02*
X102235000Y-27114500D01*
X100393500Y-28956000D02*
X100393500Y-27686000D01*
X100393500Y-27686000D02*
X100965000Y-27114500D01*
X100965000Y-27114500D02*
X102235000Y-27114500D01*
X102235000Y-27114500D02*
X103568500Y-27114500D01*
X103568500Y-27114500D02*
X103949500Y-27495500D01*
X103949500Y-27495500D02*
X103949500Y-28922980D01*
X113993500Y-39081000D02*
X117827500Y-39081000D01*
X117827500Y-39081000D02*
X117919500Y-38989000D01*
X117919500Y-32067500D02*
X117792500Y-31940500D01*
X117792500Y-31940500D02*
X116586000Y-31940500D01*
X116586000Y-36449000D02*
X117856000Y-36449000D01*
X117856000Y-36449000D02*
X117919500Y-36512500D01*
X117919500Y-34226500D02*
X117856000Y-34163000D01*
X117856000Y-34163000D02*
X116586000Y-34163000D01*
X116489480Y-66294000D02*
X114744500Y-66294000D01*
X116489480Y-66294000D02*
X116489480Y-64482980D01*
X116489480Y-64482980D02*
X116268500Y-64262000D01*
X116268500Y-64262000D02*
X115189000Y-64262000D01*
X115189000Y-64262000D02*
X114744500Y-64706500D01*
X114744500Y-64706500D02*
X114744500Y-66294000D01*
X114744500Y-66294000D02*
X114744500Y-67818000D01*
X114744500Y-67818000D02*
X115125500Y-68199000D01*
X115125500Y-68199000D02*
X116489480Y-68199000D01*
X116489480Y-66294000D02*
X116489480Y-68199000D01*
X116489480Y-68199000D02*
X116489480Y-79090520D01*
X116489480Y-79090520D02*
X113157000Y-82423000D01*
X113157000Y-82423000D02*
X107759500Y-82423000D01*
X93726000Y-59966860D02*
X106715560Y-59966860D01*
X106715560Y-59966860D02*
X108521500Y-61772800D01*
X108521500Y-61772800D02*
X108521500Y-67627500D01*
X108521500Y-67627500D02*
X109537500Y-68643500D01*
X109537500Y-68643500D02*
X115697000Y-68643500D01*
X115697000Y-68643500D02*
X116489480Y-69435980D01*
X116489480Y-69435980D02*
X116489480Y-66294000D01*
X116586000Y-36449000D02*
X116586000Y-38036500D01*
X116586000Y-38036500D02*
X115541500Y-39081000D01*
X115541500Y-39081000D02*
X113993500Y-39081000D01*
X116586000Y-34163000D02*
X116586000Y-36449000D01*
X116586000Y-31940500D02*
X116586000Y-34163000D01*
X102235000Y-28922980D02*
X103949500Y-28922980D01*
X103949500Y-28922980D02*
X115790980Y-28922980D01*
X115790980Y-28922980D02*
X116586000Y-29718000D01*
X116586000Y-29718000D02*
X116586000Y-31940500D01*
X103505000Y-26479500D02*
X107274360Y-26479500D01*
X107274360Y-26479500D02*
X108861860Y-24892000D01*
X102235000Y-24925020D02*
X102235000Y-26479500D01*
X102235000Y-26479500D02*
X102171500Y-26479500D01*
X102235000Y-24925020D02*
X100233480Y-24925020D01*
X100233480Y-24925020D02*
X99885500Y-25273000D01*
X99885500Y-25273000D02*
X99885500Y-26225500D01*
X99885500Y-26225500D02*
X100139500Y-26479500D01*
X100139500Y-26479500D02*
X102171500Y-26479500D01*
X102171500Y-26479500D02*
X103505000Y-26479500D01*
X103505000Y-26479500D02*
X103822500Y-26479500D01*
X103822500Y-26479500D02*
X104140000Y-26162000D01*
X104140000Y-26162000D02*
X104140000Y-24925020D01*
X102235000Y-24925020D02*
X104140000Y-24925020D01*
X104140000Y-24925020D02*
X108828840Y-24925020D01*
X108828840Y-24925020D02*
X108861860Y-24892000D01*
X108828840Y-24925020D02*
X108861860Y-24892000D01*
X100393500Y-33240980D02*
X100360480Y-33274000D01*
X100393500Y-31369000D02*
X100393500Y-33240980D01*
X50514250Y-52609750D02*
X50514250Y-51022250D01*
X49612550Y-52609750D02*
X50514250Y-52609750D01*
X59902780Y-55670460D02*
X48491720Y-55670460D01*
X62534800Y-54965600D02*
X60607640Y-54965600D01*
X48609250Y-52609750D02*
X49612550Y-52609750D01*
X48044150Y-55222890D02*
X48044150Y-53174850D01*
X60607640Y-54965600D02*
X59902780Y-55670460D01*
X48491720Y-55670460D02*
X48044150Y-55222890D01*
X48044150Y-53174850D02*
X48609250Y-52609750D01*
X52482750Y-52609750D02*
X52482750Y-51022250D01*
X62534800Y-54465220D02*
X60533270Y-54465220D01*
X48704500Y-53530500D02*
X51308000Y-53530500D01*
X52228750Y-52609750D02*
X52482750Y-52609750D01*
X48450560Y-55054550D02*
X48450560Y-53784440D01*
X59734439Y-55264051D02*
X48660061Y-55264051D01*
X51308000Y-53530500D02*
X52228750Y-52609750D01*
X60533270Y-54465220D02*
X59734439Y-55264051D01*
X48660061Y-55264051D02*
X48450560Y-55054550D01*
X48450560Y-53784440D02*
X48704500Y-53530500D01*
X54451250Y-51022250D02*
X54451250Y-52609750D01*
X55372000Y-53530500D02*
X54451250Y-52609750D01*
X59115260Y-53530500D02*
X55372000Y-53530500D01*
X59549600Y-53964840D02*
X59115260Y-53530500D01*
X62534800Y-53964840D02*
X59549600Y-53964840D01*
X56419750Y-52609750D02*
X56419750Y-51085750D01*
X56419750Y-51085750D02*
X56388000Y-51054000D01*
X58769250Y-52609750D02*
X56419750Y-52609750D01*
X59623960Y-53464460D02*
X58769250Y-52609750D01*
X62534800Y-53464460D02*
X59623960Y-53464460D01*
X38970918Y-41084500D02*
X39890907Y-40164511D01*
X37279580Y-41084500D02*
X38970918Y-41084500D01*
X46148871Y-40164511D02*
X46421136Y-40436776D01*
X39890907Y-40164511D02*
X46148871Y-40164511D01*
X46421136Y-40436776D02*
X47049753Y-40436776D01*
X76758840Y-34686350D02*
X76758840Y-32900617D01*
X77444641Y-31495486D02*
X76860942Y-30911787D01*
X76860942Y-30911787D02*
X76708000Y-30911787D01*
X76758840Y-32900617D02*
X77444641Y-32214816D01*
X76852780Y-34780290D02*
X76758840Y-34686350D01*
X77444641Y-32214816D02*
X77444641Y-31495486D01*
X76852780Y-37719000D02*
X76852780Y-34780290D01*
X46462983Y-39344600D02*
X47091600Y-39344600D01*
X46069284Y-39738299D02*
X46462983Y-39344600D01*
X38938502Y-38793420D02*
X39883381Y-39738299D01*
X39883381Y-39738299D02*
X46069284Y-39738299D01*
X37277040Y-38793420D02*
X38938502Y-38793420D01*
X76352430Y-32198061D02*
X76695340Y-31855151D01*
X76352400Y-36245800D02*
X76352430Y-36245770D01*
X76352400Y-37719000D02*
X76352400Y-36245800D01*
X76352430Y-36245770D02*
X76352430Y-32198061D01*
X64866300Y-25369300D02*
X64866300Y-24752400D01*
X67462400Y-28702000D02*
X67462400Y-27965400D01*
X67462400Y-27965400D02*
X64866300Y-25369300D01*
X73850500Y-37719000D02*
X73850500Y-31580658D01*
X74117164Y-31313994D02*
X74117164Y-30336652D01*
X73850500Y-31580658D02*
X74117164Y-31313994D01*
X74117164Y-30336652D02*
X73508217Y-29727705D01*
X66433315Y-29177775D02*
X66433315Y-29806392D01*
X64423951Y-25501701D02*
X66433315Y-27511065D01*
X62938025Y-24752400D02*
X63192025Y-24752400D01*
X63192025Y-24752400D02*
X63941326Y-25501701D01*
X63941326Y-25501701D02*
X64423951Y-25501701D01*
X66433315Y-27511065D02*
X66433315Y-29177775D01*
X72428112Y-29565600D02*
X72428112Y-30194217D01*
X72250299Y-30372030D02*
X72250299Y-35571989D01*
X72428112Y-30194217D02*
X72250299Y-30372030D01*
X72250299Y-35571989D02*
X72849740Y-36171430D01*
X72849740Y-36171430D02*
X72849740Y-36245800D01*
X72849740Y-36245800D02*
X72849740Y-37719000D01*
X65620871Y-35341937D02*
X65620871Y-27273370D01*
X61270100Y-24752400D02*
X61016100Y-24752400D01*
X65620871Y-27273370D02*
X64255610Y-25908109D01*
X66344800Y-36065866D02*
X65620871Y-35341937D01*
X64255610Y-25908109D02*
X62425809Y-25908109D01*
X66344800Y-37719000D02*
X66344800Y-36065866D01*
X62425809Y-25908109D02*
X61270100Y-24752400D01*
X65844420Y-36140236D02*
X65214460Y-35510276D01*
X63941324Y-26314519D02*
X60935844Y-26314519D01*
X60935844Y-26314519D02*
X59373725Y-24752400D01*
X65844420Y-37719000D02*
X65844420Y-36140236D01*
X59373725Y-24752400D02*
X59119725Y-24752400D01*
X65214460Y-35510276D02*
X65214460Y-27587655D01*
X65214460Y-27587655D02*
X63941324Y-26314519D01*
X69049899Y-35448239D02*
X69049899Y-29989769D01*
X69847460Y-37719000D02*
X69847460Y-36245800D01*
X69847460Y-36245800D02*
X69049899Y-35448239D01*
X69049899Y-29989769D02*
X74449928Y-24589740D01*
X74449928Y-24589740D02*
X75915520Y-24589740D01*
X70848220Y-28766198D02*
X74524298Y-25090120D01*
X70848220Y-37719000D02*
X70848220Y-28766198D01*
X74524298Y-25090120D02*
X75915520Y-25090120D01*
X68346320Y-35933786D02*
X68237080Y-35824544D01*
X74375558Y-24089360D02*
X75915520Y-24089360D01*
X66840099Y-31624819D02*
X74375558Y-24089360D01*
X66840099Y-32450025D02*
X66840099Y-31624819D01*
X68237080Y-35824544D02*
X68237080Y-33847006D01*
X68346320Y-37719000D02*
X68346320Y-35933786D01*
X68237080Y-33847006D02*
X66840099Y-32450025D01*
X71272392Y-36169592D02*
X71272392Y-28916776D01*
X74598668Y-25590500D02*
X75915520Y-25590500D01*
X71272392Y-28916776D02*
X74598668Y-25590500D01*
X71348600Y-37719000D02*
X71348600Y-36245800D01*
X71348600Y-36245800D02*
X71272392Y-36169592D01*
X72349360Y-36245800D02*
X71678802Y-35575242D01*
X74673038Y-26090880D02*
X75915520Y-26090880D01*
X71678802Y-35575242D02*
X71678802Y-29085116D01*
X71678802Y-29085116D02*
X74673038Y-26090880D01*
X72349360Y-37719000D02*
X72349360Y-36245800D01*
X74851260Y-35989262D02*
X74851260Y-37719000D01*
X75133200Y-35707322D02*
X74851260Y-35989262D01*
X75133200Y-27519500D02*
X75133200Y-35707322D01*
X75760000Y-26892700D02*
X75133200Y-27519500D01*
X75760000Y-26562500D02*
X75760000Y-26892700D01*
X66845180Y-37719000D02*
X66845180Y-35991496D01*
X74224278Y-23091140D02*
X75915520Y-23091140D01*
X66027281Y-31288137D02*
X74224278Y-23091140D01*
X66845180Y-35991496D02*
X66027281Y-35173597D01*
X66027281Y-35173597D02*
X66027281Y-31288137D01*
X66433690Y-31456478D02*
X74298648Y-23591520D01*
X66433690Y-35005256D02*
X66433690Y-31456478D01*
X67345560Y-37719000D02*
X67345560Y-35917126D01*
X67345560Y-35917126D02*
X66433690Y-35005256D01*
X74298648Y-23591520D02*
X75915520Y-23591520D01*
X78948279Y-31167221D02*
X79766160Y-30349340D01*
X78948279Y-32747813D02*
X78948279Y-31167221D01*
X79354680Y-33154214D02*
X78948279Y-32747813D01*
X79354680Y-37719000D02*
X79354680Y-33154214D01*
X79766160Y-30349340D02*
X79766160Y-27940000D01*
X80264000Y-27940000D02*
X80264000Y-30641034D01*
X80593900Y-30970934D02*
X80593900Y-33359134D01*
X80010000Y-35900360D02*
X80355440Y-36245800D01*
X80264000Y-30641034D02*
X80593900Y-30970934D01*
X80593900Y-33359134D02*
X80010000Y-33943034D01*
X80010000Y-33943034D02*
X80010000Y-35900360D01*
X80355440Y-36245800D02*
X80355440Y-37719000D01*
X78541870Y-30998880D02*
X79265780Y-30274970D01*
X78353920Y-37719000D02*
X78353920Y-36139830D01*
X79265780Y-30274970D02*
X79265780Y-27940000D01*
X78676499Y-35817251D02*
X78676499Y-33050783D01*
X78676499Y-33050783D02*
X78541869Y-32916153D01*
X78353920Y-36139830D02*
X78676499Y-35817251D01*
X78541869Y-32916153D02*
X78541870Y-30998880D01*
X81648301Y-34819335D02*
X81000310Y-34171344D01*
X80764380Y-28793440D02*
X80764380Y-27940000D01*
X81356200Y-37719000D02*
X81356200Y-35830766D01*
X80764380Y-30566664D02*
X80764380Y-28793440D01*
X81356200Y-35830766D02*
X81648301Y-35538665D01*
X81000310Y-30802594D02*
X80764380Y-30566664D01*
X81000310Y-34171344D02*
X81000310Y-30802594D01*
X81648301Y-35538665D02*
X81648301Y-34819335D01*
X81264760Y-30492294D02*
X81264760Y-28793440D01*
X81406719Y-34003003D02*
X81406719Y-30634253D01*
X82054710Y-34650994D02*
X81406719Y-34003003D01*
X81264760Y-28793440D02*
X81264760Y-27940000D01*
X82054711Y-35707005D02*
X82054710Y-34650994D01*
X81406719Y-30634253D02*
X81264760Y-30492294D01*
X81856580Y-37719000D02*
X81856580Y-35905136D01*
X81856580Y-35905136D02*
X82054711Y-35707005D01*
X81765140Y-30417924D02*
X81765140Y-28793440D01*
X81813128Y-30465912D02*
X81765140Y-30417924D01*
X81813129Y-32195283D02*
X81813128Y-30465912D01*
X82857340Y-33239494D02*
X81813129Y-32195283D01*
X82857340Y-37719000D02*
X82857340Y-33239494D01*
X81765140Y-28793440D02*
X81765140Y-27940000D01*
X75351640Y-36063632D02*
X75539610Y-35875662D01*
X75351640Y-37719000D02*
X75351640Y-36063632D01*
X76640975Y-29117309D02*
X77938862Y-29117309D01*
X75539610Y-35875662D02*
X75539610Y-30218674D01*
X75539610Y-30218674D02*
X76640975Y-29117309D01*
X77938862Y-29117309D02*
X78265020Y-28791151D01*
X78265020Y-28791151D02*
X78265020Y-27940000D01*
X76809315Y-29523719D02*
X78107203Y-29523718D01*
X78765400Y-28865521D02*
X78765400Y-27940000D01*
X75852020Y-37719000D02*
X75852020Y-36138002D01*
X75852020Y-36138002D02*
X75946020Y-36044002D01*
X75946020Y-30387014D02*
X76809315Y-29523719D01*
X78107203Y-29523718D02*
X78765400Y-28865521D01*
X75946020Y-36044002D02*
X75946020Y-30387014D01*
X93726000Y-44455080D02*
X95199200Y-44455080D01*
X95199200Y-44455080D02*
X95634664Y-44890544D01*
X95634664Y-44890544D02*
X95634664Y-45220937D01*
X87666270Y-23591520D02*
X90668570Y-26593820D01*
X84114640Y-23591520D02*
X87666270Y-23591520D01*
X90668570Y-26593820D02*
X91914083Y-26593820D01*
X91914083Y-26593820D02*
X92256992Y-26936729D01*
X93726000Y-44955460D02*
X91958245Y-44955460D01*
X91958245Y-44955460D02*
X91821148Y-44818363D01*
X90836910Y-26187410D02*
X92601072Y-26187410D01*
X84114640Y-23091140D02*
X87740640Y-23091140D01*
X87740640Y-23091140D02*
X90836910Y-26187410D01*
X93225900Y-26812238D02*
X93225900Y-27440855D01*
X92601072Y-26187410D02*
X93225900Y-26812238D01*
X93726000Y-43954700D02*
X95770728Y-43954700D01*
X95770728Y-43954700D02*
X96012007Y-44195979D01*
X90805000Y-27051000D02*
X91097140Y-27343140D01*
X91097140Y-27343140D02*
X91186000Y-27343140D01*
X84114640Y-24089360D02*
X87589360Y-24089360D01*
X90551000Y-27051000D02*
X90805000Y-27051000D01*
X87589360Y-24089360D02*
X90551000Y-27051000D01*
X91694000Y-46014640D02*
X91694000Y-46037500D01*
X92252800Y-45455840D02*
X91694000Y-46014640D01*
X93726000Y-45455840D02*
X92252800Y-45455840D01*
X84968080Y-22590760D02*
X84114640Y-22590760D01*
X93981505Y-26671505D02*
X93091000Y-25781000D01*
X93091000Y-25781000D02*
X91005250Y-25781000D01*
X91005250Y-25781000D02*
X87815010Y-22590760D01*
X87815010Y-22590760D02*
X84968080Y-22590760D01*
X96687640Y-47457360D02*
X93726000Y-47457360D01*
X96833438Y-47311562D02*
X96687640Y-47457360D01*
X84114640Y-22090380D02*
X87889380Y-22090380D01*
X93744273Y-25374590D02*
X93881345Y-25511662D01*
X87889380Y-22090380D02*
X91173590Y-25374590D01*
X91173590Y-25374590D02*
X93744273Y-25374590D01*
X93726000Y-48458120D02*
X95763070Y-48458120D01*
X95763070Y-48458120D02*
X96012000Y-48209190D01*
X95123000Y-27728239D02*
X95123000Y-25644351D01*
X95123000Y-25644351D02*
X94241010Y-24762361D01*
X91136111Y-24762361D02*
X87963750Y-21590000D01*
X94241010Y-24762361D02*
X91136111Y-24762361D01*
X95491648Y-28096887D02*
X95123000Y-27728239D01*
X87963750Y-21590000D02*
X84968080Y-21590000D01*
X84968080Y-21590000D02*
X84114640Y-21590000D01*
X84114640Y-25090120D02*
X82288382Y-25090120D01*
X81851499Y-25527003D02*
X81407000Y-25971502D01*
X82288382Y-25090120D02*
X81851499Y-25527003D01*
X77353160Y-37719000D02*
X77353160Y-33936994D01*
X77353160Y-33936994D02*
X77508160Y-33781994D01*
X83103915Y-24340800D02*
X82475298Y-24340800D01*
X84114640Y-24589740D02*
X83352855Y-24589740D01*
X83352855Y-24589740D02*
X83103915Y-24340800D01*
X78257461Y-33206495D02*
X78130410Y-33079444D01*
X78257461Y-34141659D02*
X78257461Y-33206495D01*
X77853540Y-34545580D02*
X78257461Y-34141659D01*
X78130410Y-31308068D02*
X77724000Y-30901658D01*
X78130410Y-33079444D02*
X78130410Y-31308068D01*
X77724000Y-30901658D02*
X77724000Y-30273041D01*
X77853540Y-37719000D02*
X77853540Y-34545580D01*
X60687880Y-56967120D02*
X60436100Y-57218900D01*
X60436100Y-57218900D02*
X59509000Y-57218900D01*
X59509000Y-57218900D02*
X59089900Y-57638000D01*
X62534800Y-56967120D02*
X60687880Y-56967120D01*
X77760000Y-18609300D02*
X77760000Y-19562500D01*
X78271800Y-18097500D02*
X77760000Y-18609300D01*
X83680300Y-18097500D02*
X78271800Y-18097500D01*
X85013800Y-19431000D02*
X83680300Y-18097500D01*
X85661500Y-19431000D02*
X85013800Y-19431000D01*
X77264260Y-19225260D02*
X77264260Y-19740880D01*
X77089000Y-19050000D02*
X77264260Y-19225260D01*
X71437500Y-19939000D02*
X72326500Y-19050000D01*
X71437500Y-20193000D02*
X71437500Y-19939000D01*
X72326500Y-19050000D02*
X77089000Y-19050000D01*
X78265020Y-19740880D02*
X78265020Y-22044657D01*
X77640498Y-22669179D02*
X77600527Y-22669179D01*
X78265020Y-22044657D02*
X77640498Y-22669179D01*
X77600527Y-22669179D02*
X77156028Y-23113678D01*
X78752699Y-22694901D02*
X78308200Y-23139400D01*
X79265780Y-21479250D02*
X78981299Y-21763731D01*
X78981299Y-22466301D02*
X78752699Y-22694901D01*
X79265780Y-19740880D02*
X79265780Y-21479250D01*
X78981299Y-21763731D02*
X78981299Y-22466301D01*
X81280000Y-22040883D02*
X81280000Y-22669500D01*
X81280000Y-19756120D02*
X81280000Y-22040883D01*
X81264760Y-19740880D02*
X81280000Y-19756120D01*
X72576398Y-20360262D02*
X75186162Y-20360262D01*
X72186801Y-20749859D02*
X72576398Y-20360262D01*
X75186162Y-20360262D02*
X75915520Y-21089620D01*
X72186801Y-21221699D02*
X72186801Y-20749859D01*
X71437500Y-21971000D02*
X72186801Y-21221699D01*
X64498163Y-35943479D02*
X64366161Y-35811477D01*
X64105175Y-28189575D02*
X63660676Y-27745076D01*
X64401641Y-28486041D02*
X64105175Y-28189575D01*
X64366161Y-35811477D02*
X64366160Y-34178260D01*
X65516761Y-41314625D02*
X65516761Y-39837363D01*
X65127125Y-41704261D02*
X65516761Y-41314625D01*
X64158874Y-41455340D02*
X64407795Y-41704261D01*
X62534800Y-41455340D02*
X64158874Y-41455340D01*
X64401641Y-33894426D02*
X64401641Y-28486041D01*
X65516761Y-39837363D02*
X64498163Y-38818765D01*
X64407795Y-41704261D02*
X65127125Y-41704261D01*
X64498163Y-38818765D02*
X64498163Y-35943479D01*
X64366160Y-34178260D02*
X64401641Y-33894426D01*
X83306800Y-21062500D02*
X84260000Y-21062500D01*
X82969099Y-21400201D02*
X83306800Y-21062500D01*
X82969099Y-22212301D02*
X82969099Y-21400201D01*
X82524600Y-22656800D02*
X82969099Y-22212301D01*
X57480200Y-78447900D02*
X61469526Y-78447900D01*
X61469526Y-78447900D02*
X64935090Y-74982336D01*
X64935090Y-74982336D02*
X64935090Y-70794890D01*
X64935090Y-70794890D02*
X65346580Y-70383400D01*
X65346580Y-70383400D02*
X65346580Y-68910200D01*
X57480200Y-78447900D02*
X59182000Y-78447900D01*
X59182000Y-78447900D02*
X59207400Y-78473300D01*
X65346580Y-68910200D02*
X65346580Y-70053200D01*
X65346580Y-69781420D02*
X65346580Y-68910200D01*
X57073800Y-22847400D02*
X57073800Y-21572220D01*
X57073800Y-21572220D02*
X56997600Y-21496020D01*
X62534800Y-43456860D02*
X47912842Y-43456860D01*
X50546027Y-77604677D02*
X50546028Y-90779572D01*
X47912842Y-43456860D02*
X43789591Y-47580111D01*
X50546028Y-90779572D02*
X48133000Y-93192600D01*
X43789591Y-47580111D02*
X43789590Y-70848227D01*
X43789590Y-70848227D02*
X47881005Y-74939653D01*
X47881005Y-74939653D02*
X50546027Y-77604677D01*
X48133000Y-93192600D02*
X48133000Y-93345000D01*
X62534800Y-42456100D02*
X48338852Y-42456100D01*
X48338852Y-42456100D02*
X43383180Y-47411772D01*
X50139618Y-88645982D02*
X45593000Y-93192600D01*
X43383180Y-47411772D02*
X43383180Y-71016567D01*
X45593000Y-93192600D02*
X45593000Y-93345000D01*
X43383180Y-71016567D02*
X47570023Y-75203421D01*
X47570023Y-75203421D02*
X50139618Y-77773018D01*
X50139618Y-77773018D02*
X50139618Y-88645982D01*
X62534800Y-41955720D02*
X48264482Y-41955720D01*
X48264482Y-41955720D02*
X42976770Y-47243432D01*
X42976770Y-47243432D02*
X42976771Y-71184908D01*
X42976771Y-71184908D02*
X49733209Y-77941359D01*
X49733209Y-77941359D02*
X49733209Y-87223591D01*
X49733209Y-87223591D02*
X43611800Y-93345000D01*
X43611800Y-93345000D02*
X43053000Y-93345000D01*
X62534800Y-40454580D02*
X49190872Y-40454580D01*
X49326800Y-86258400D02*
X47260241Y-88324959D01*
X49190872Y-40454580D02*
X42570360Y-47075092D01*
X47260241Y-88374227D02*
X43610278Y-92024190D01*
X41681410Y-92024190D02*
X40513000Y-93192600D01*
X42570360Y-47075092D02*
X42570362Y-71353249D01*
X42570362Y-71353249D02*
X49326800Y-78109700D01*
X47260241Y-88324959D02*
X47260241Y-88374227D01*
X40513000Y-93192600D02*
X40513000Y-93345000D01*
X49326800Y-78109700D02*
X49326800Y-86258400D01*
X43610278Y-92024190D02*
X41681410Y-92024190D01*
X45948591Y-70133478D02*
X52578074Y-76762961D01*
X52578074Y-80410174D02*
X58953400Y-86785500D01*
X62534800Y-45958760D02*
X48284693Y-45958760D01*
X52578074Y-76762961D02*
X52578074Y-80410174D01*
X48284693Y-45958760D02*
X45948590Y-48294863D01*
X45948590Y-48294863D02*
X45948591Y-70133478D01*
X58953400Y-86785500D02*
X58953400Y-86995000D01*
X60833000Y-93345000D02*
X60833000Y-87972900D01*
X60833000Y-87972900D02*
X59855100Y-86995000D01*
X59855100Y-86995000D02*
X58953400Y-86995000D01*
X52984484Y-76594621D02*
X52984484Y-80241815D01*
X57410365Y-84667696D02*
X61706096Y-84667696D01*
X52984484Y-80241815D02*
X57410365Y-84667696D01*
X62534800Y-46959520D02*
X47858683Y-46959520D01*
X46355000Y-48463203D02*
X46355000Y-69965137D01*
X46355000Y-69965137D02*
X52984484Y-76594621D01*
X63334901Y-86296501D02*
X64033400Y-86995000D01*
X47858683Y-46959520D02*
X46355000Y-48463203D01*
X61706096Y-84667696D02*
X63334901Y-86296501D01*
X63373000Y-93345000D02*
X63373000Y-87655400D01*
X63373000Y-87655400D02*
X64033400Y-86995000D01*
X59296329Y-26720929D02*
X57327800Y-24752400D01*
X65344040Y-37719000D02*
X65344040Y-36214606D01*
X63772984Y-26720929D02*
X59296329Y-26720929D01*
X64808051Y-35678617D02*
X64808051Y-27755996D01*
X65344040Y-36214606D02*
X64808051Y-35678617D01*
X64808051Y-27755996D02*
X63772984Y-26720929D01*
X57327800Y-24752400D02*
X57073800Y-24752400D01*
D50*
G36*
X118491000Y-79449395D02*
X118374160Y-79566235D01*
X118374160Y-67320740D01*
X118374160Y-67068121D01*
X118374160Y-66579750D01*
X118374160Y-66008250D01*
X118374160Y-65519879D01*
X118374160Y-65267260D01*
X118277487Y-65033871D01*
X118098858Y-64855243D01*
X117865469Y-64758570D01*
X116775230Y-64758570D01*
X116616480Y-64917320D01*
X116616480Y-66167000D01*
X118215410Y-66167000D01*
X118374160Y-66008250D01*
X118374160Y-66579750D01*
X118215410Y-66421000D01*
X116616480Y-66421000D01*
X116616480Y-67670680D01*
X116775230Y-67829430D01*
X117865469Y-67829430D01*
X118098858Y-67732757D01*
X118277487Y-67554129D01*
X118374160Y-67320740D01*
X118374160Y-79566235D01*
X114310895Y-83629500D01*
X109157267Y-83629500D01*
X109157267Y-82627966D01*
X109129305Y-82077462D01*
X108972431Y-81698735D01*
X108731430Y-81630675D01*
X107939105Y-82423000D01*
X108731430Y-83215325D01*
X108972431Y-83147265D01*
X109157267Y-82627966D01*
X109157267Y-83629500D01*
X108485581Y-83629500D01*
X108551825Y-83394930D01*
X107759500Y-82602605D01*
X106967175Y-83394930D01*
X107033418Y-83629500D01*
X106605605Y-83629500D01*
X106362500Y-83386395D01*
X106362500Y-82233134D01*
X106389695Y-82768538D01*
X106546569Y-83147265D01*
X106787570Y-83215325D01*
X107579895Y-82423000D01*
X106787570Y-81630675D01*
X106546569Y-81698735D01*
X106362500Y-82215879D01*
X106362500Y-81650105D01*
X106669105Y-81343500D01*
X106997553Y-81343500D01*
X106967175Y-81451070D01*
X107759500Y-82243395D01*
X108551825Y-81451070D01*
X108521446Y-81343500D01*
X111368105Y-81343500D01*
X114744500Y-77967105D01*
X114744500Y-67597155D01*
X114880102Y-67732757D01*
X115113491Y-67829430D01*
X116203730Y-67829430D01*
X116362480Y-67670680D01*
X116362480Y-66421000D01*
X116342480Y-66421000D01*
X116342480Y-66167000D01*
X116362480Y-66167000D01*
X116362480Y-64917320D01*
X116203730Y-64758570D01*
X115113491Y-64758570D01*
X114880102Y-64855243D01*
X114744500Y-64990844D01*
X114744500Y-63563500D01*
X118491000Y-63563500D01*
X118491000Y-79449395D01*
X118491000Y-79449395D01*
G37*
X118491000Y-79449395D02*
X118374160Y-79566235D01*
X118374160Y-67320740D01*
X118374160Y-67068121D01*
X118374160Y-66579750D01*
X118374160Y-66008250D01*
X118374160Y-65519879D01*
X118374160Y-65267260D01*
X118277487Y-65033871D01*
X118098858Y-64855243D01*
X117865469Y-64758570D01*
X116775230Y-64758570D01*
X116616480Y-64917320D01*
X116616480Y-66167000D01*
X118215410Y-66167000D01*
X118374160Y-66008250D01*
X118374160Y-66579750D01*
X118215410Y-66421000D01*
X116616480Y-66421000D01*
X116616480Y-67670680D01*
X116775230Y-67829430D01*
X117865469Y-67829430D01*
X118098858Y-67732757D01*
X118277487Y-67554129D01*
X118374160Y-67320740D01*
X118374160Y-79566235D01*
X114310895Y-83629500D01*
X109157267Y-83629500D01*
X109157267Y-82627966D01*
X109129305Y-82077462D01*
X108972431Y-81698735D01*
X108731430Y-81630675D01*
X107939105Y-82423000D01*
X108731430Y-83215325D01*
X108972431Y-83147265D01*
X109157267Y-82627966D01*
X109157267Y-83629500D01*
X108485581Y-83629500D01*
X108551825Y-83394930D01*
X107759500Y-82602605D01*
X106967175Y-83394930D01*
X107033418Y-83629500D01*
X106605605Y-83629500D01*
X106362500Y-83386395D01*
X106362500Y-82233134D01*
X106389695Y-82768538D01*
X106546569Y-83147265D01*
X106787570Y-83215325D01*
X107579895Y-82423000D01*
X106787570Y-81630675D01*
X106546569Y-81698735D01*
X106362500Y-82215879D01*
X106362500Y-81650105D01*
X106669105Y-81343500D01*
X106997553Y-81343500D01*
X106967175Y-81451070D01*
X107759500Y-82243395D01*
X108551825Y-81451070D01*
X108521446Y-81343500D01*
X111368105Y-81343500D01*
X114744500Y-77967105D01*
X114744500Y-67597155D01*
X114880102Y-67732757D01*
X115113491Y-67829430D01*
X116203730Y-67829430D01*
X116362480Y-67670680D01*
X116362480Y-66421000D01*
X116342480Y-66421000D01*
X116342480Y-66167000D01*
X116362480Y-66167000D01*
X116362480Y-64917320D01*
X116203730Y-64758570D01*
X115113491Y-64758570D01*
X114880102Y-64855243D01*
X114744500Y-64990844D01*
X114744500Y-63563500D01*
X118491000Y-63563500D01*
X118491000Y-79449395D01*
G36*
X113982500Y-68033900D02*
X112364520Y-68033900D01*
X112364520Y-67670680D01*
X112364520Y-66421000D01*
X112364520Y-66167000D01*
X112364520Y-64917320D01*
X112205770Y-64758570D01*
X111115531Y-64758570D01*
X110882142Y-64855243D01*
X110703513Y-65033871D01*
X110606840Y-65267260D01*
X110606840Y-65519879D01*
X110606840Y-66008250D01*
X110765590Y-66167000D01*
X112364520Y-66167000D01*
X112364520Y-66421000D01*
X110765590Y-66421000D01*
X110606840Y-66579750D01*
X110606840Y-67068121D01*
X110606840Y-67320740D01*
X110703513Y-67554129D01*
X110882142Y-67732757D01*
X111115531Y-67829430D01*
X112205770Y-67829430D01*
X112364520Y-67670680D01*
X112364520Y-68033900D01*
X109790004Y-68033900D01*
X109131100Y-67374996D01*
X109131100Y-61772800D01*
X109084697Y-61539516D01*
X108952552Y-61341748D01*
X108648500Y-61037696D01*
X108648500Y-58980605D01*
X109005905Y-58623200D01*
X110652560Y-58623200D01*
X110745905Y-58623200D01*
X110811310Y-58688605D01*
X111009202Y-58688605D01*
X111087848Y-58741691D01*
X111287560Y-58781742D01*
X112585180Y-58781742D01*
X112585180Y-58938795D01*
X112565180Y-58938795D01*
X112565180Y-59540140D01*
X112723930Y-59698890D01*
X113715109Y-59698890D01*
X113948498Y-59602217D01*
X113982500Y-59568215D01*
X113982500Y-60185360D01*
X113786920Y-60146138D01*
X112311180Y-60146138D01*
X112311180Y-59540140D01*
X112311180Y-58938795D01*
X110811310Y-58938795D01*
X110652560Y-59097545D01*
X110652560Y-59190200D01*
X110749233Y-59423589D01*
X110927862Y-59602217D01*
X111161251Y-59698890D01*
X112152430Y-59698890D01*
X112311180Y-59540140D01*
X112311180Y-60146138D01*
X111287560Y-60146138D01*
X111093861Y-60183720D01*
X110923618Y-60295551D01*
X110809659Y-60464378D01*
X110769608Y-60664090D01*
X110769608Y-62663070D01*
X110807190Y-62856769D01*
X110919021Y-63027012D01*
X111087848Y-63140971D01*
X111287560Y-63181022D01*
X113786920Y-63181022D01*
X113980619Y-63143440D01*
X113982500Y-63142204D01*
X113982500Y-64806200D01*
X113867509Y-64758570D01*
X112777270Y-64758570D01*
X112618520Y-64917320D01*
X112618520Y-66167000D01*
X112638520Y-66167000D01*
X112638520Y-66421000D01*
X112618520Y-66421000D01*
X112618520Y-67670680D01*
X112777270Y-67829430D01*
X113867509Y-67829430D01*
X113982500Y-67781799D01*
X113982500Y-68033900D01*
X113982500Y-68033900D01*
G37*
X113982500Y-68033900D02*
X112364520Y-68033900D01*
X112364520Y-67670680D01*
X112364520Y-66421000D01*
X112364520Y-66167000D01*
X112364520Y-64917320D01*
X112205770Y-64758570D01*
X111115531Y-64758570D01*
X110882142Y-64855243D01*
X110703513Y-65033871D01*
X110606840Y-65267260D01*
X110606840Y-65519879D01*
X110606840Y-66008250D01*
X110765590Y-66167000D01*
X112364520Y-66167000D01*
X112364520Y-66421000D01*
X110765590Y-66421000D01*
X110606840Y-66579750D01*
X110606840Y-67068121D01*
X110606840Y-67320740D01*
X110703513Y-67554129D01*
X110882142Y-67732757D01*
X111115531Y-67829430D01*
X112205770Y-67829430D01*
X112364520Y-67670680D01*
X112364520Y-68033900D01*
X109790004Y-68033900D01*
X109131100Y-67374996D01*
X109131100Y-61772800D01*
X109084697Y-61539516D01*
X108952552Y-61341748D01*
X108648500Y-61037696D01*
X108648500Y-58980605D01*
X109005905Y-58623200D01*
X110652560Y-58623200D01*
X110745905Y-58623200D01*
X110811310Y-58688605D01*
X111009202Y-58688605D01*
X111087848Y-58741691D01*
X111287560Y-58781742D01*
X112585180Y-58781742D01*
X112585180Y-58938795D01*
X112565180Y-58938795D01*
X112565180Y-59540140D01*
X112723930Y-59698890D01*
X113715109Y-59698890D01*
X113948498Y-59602217D01*
X113982500Y-59568215D01*
X113982500Y-60185360D01*
X113786920Y-60146138D01*
X112311180Y-60146138D01*
X112311180Y-59540140D01*
X112311180Y-58938795D01*
X110811310Y-58938795D01*
X110652560Y-59097545D01*
X110652560Y-59190200D01*
X110749233Y-59423589D01*
X110927862Y-59602217D01*
X111161251Y-59698890D01*
X112152430Y-59698890D01*
X112311180Y-59540140D01*
X112311180Y-60146138D01*
X111287560Y-60146138D01*
X111093861Y-60183720D01*
X110923618Y-60295551D01*
X110809659Y-60464378D01*
X110769608Y-60664090D01*
X110769608Y-62663070D01*
X110807190Y-62856769D01*
X110919021Y-63027012D01*
X111087848Y-63140971D01*
X111287560Y-63181022D01*
X113786920Y-63181022D01*
X113980619Y-63143440D01*
X113982500Y-63142204D01*
X113982500Y-64806200D01*
X113867509Y-64758570D01*
X112777270Y-64758570D01*
X112618520Y-64917320D01*
X112618520Y-66167000D01*
X112638520Y-66167000D01*
X112638520Y-66421000D01*
X112618520Y-66421000D01*
X112618520Y-67670680D01*
X112777270Y-67829430D01*
X113867509Y-67829430D01*
X113982500Y-67781799D01*
X113982500Y-68033900D01*
G36*
X119305000Y-41592500D02*
X119028014Y-41592500D01*
X119148405Y-41239345D01*
X119117633Y-40760356D01*
X118993533Y-40460752D01*
X118771046Y-40414759D01*
X118591441Y-40594364D01*
X118591441Y-40235154D01*
X118545448Y-40012667D01*
X118091145Y-39857795D01*
X117871240Y-39871922D01*
X117871240Y-37324610D01*
X117871240Y-37071991D01*
X117871240Y-36734750D01*
X117871240Y-36163250D01*
X117871240Y-35826009D01*
X117871240Y-35573390D01*
X117774567Y-35340001D01*
X117740565Y-35306000D01*
X117774567Y-35271999D01*
X117871240Y-35038610D01*
X117871240Y-34785991D01*
X117871240Y-34448750D01*
X117871240Y-33877250D01*
X117871240Y-33540009D01*
X117871240Y-33287390D01*
X117774567Y-33054001D01*
X117772315Y-33051750D01*
X117774567Y-33049499D01*
X117871240Y-32816110D01*
X117871240Y-32563491D01*
X117871240Y-32226250D01*
X117871240Y-31654750D01*
X117871240Y-31317509D01*
X117871240Y-31064890D01*
X117774567Y-30831501D01*
X117595938Y-30652873D01*
X117362549Y-30556200D01*
X116871750Y-30556200D01*
X116713000Y-30714950D01*
X116713000Y-31813500D01*
X117712490Y-31813500D01*
X117871240Y-31654750D01*
X117871240Y-32226250D01*
X117712490Y-32067500D01*
X116713000Y-32067500D01*
X116713000Y-32937450D01*
X116713000Y-33166050D01*
X116713000Y-34036000D01*
X117712490Y-34036000D01*
X117871240Y-33877250D01*
X117871240Y-34448750D01*
X117712490Y-34290000D01*
X116713000Y-34290000D01*
X116713000Y-35223450D01*
X116713000Y-35388550D01*
X116713000Y-36322000D01*
X117712490Y-36322000D01*
X117871240Y-36163250D01*
X117871240Y-36734750D01*
X117712490Y-36576000D01*
X116713000Y-36576000D01*
X116713000Y-37674550D01*
X116871750Y-37833300D01*
X117362549Y-37833300D01*
X117595938Y-37736627D01*
X117774567Y-37557999D01*
X117871240Y-37324610D01*
X117871240Y-39871922D01*
X117612156Y-39888567D01*
X117312552Y-40012667D01*
X117266559Y-40235154D01*
X117929000Y-40897595D01*
X118591441Y-40235154D01*
X118591441Y-40594364D01*
X118108605Y-41077200D01*
X118122747Y-41091342D01*
X117943142Y-41270947D01*
X117929000Y-41256805D01*
X117914857Y-41270947D01*
X117735252Y-41091342D01*
X117749395Y-41077200D01*
X117086954Y-40414759D01*
X116864467Y-40460752D01*
X116709595Y-40915055D01*
X116740367Y-41394044D01*
X116822570Y-41592500D01*
X116071452Y-41592500D01*
X116071452Y-41021000D01*
X116033870Y-40827301D01*
X115922039Y-40657058D01*
X115753212Y-40543099D01*
X115553500Y-40503048D01*
X115004477Y-40503048D01*
X115066827Y-40440699D01*
X115163500Y-40207310D01*
X115163500Y-39954691D01*
X115163500Y-39366750D01*
X115004750Y-39208000D01*
X114120500Y-39208000D01*
X114120500Y-39228000D01*
X113866500Y-39228000D01*
X113866500Y-39208000D01*
X113846500Y-39208000D01*
X113846500Y-38954000D01*
X113866500Y-38954000D01*
X113866500Y-38934000D01*
X114120500Y-38934000D01*
X114120500Y-38954000D01*
X115004750Y-38954000D01*
X115163500Y-38795250D01*
X115163500Y-38207309D01*
X115163500Y-37954690D01*
X115066827Y-37721301D01*
X115061777Y-37716252D01*
X115331240Y-37716252D01*
X115519215Y-37679780D01*
X115576062Y-37736627D01*
X115809451Y-37833300D01*
X116300250Y-37833300D01*
X116459000Y-37674550D01*
X116459000Y-36576000D01*
X116439000Y-36576000D01*
X116439000Y-36322000D01*
X116459000Y-36322000D01*
X116459000Y-35388550D01*
X116459000Y-35223450D01*
X116459000Y-34290000D01*
X116439000Y-34290000D01*
X116439000Y-34036000D01*
X116459000Y-34036000D01*
X116459000Y-33166050D01*
X116459000Y-32937450D01*
X116459000Y-32067500D01*
X116439000Y-32067500D01*
X116439000Y-31813500D01*
X116459000Y-31813500D01*
X116459000Y-30714950D01*
X116300250Y-30556200D01*
X115809451Y-30556200D01*
X115576062Y-30652873D01*
X115518194Y-30710740D01*
X115331240Y-30673248D01*
X114030760Y-30673248D01*
X113837061Y-30710830D01*
X113666818Y-30822661D01*
X113552859Y-30991488D01*
X113512808Y-31191200D01*
X113512808Y-31686366D01*
X113476367Y-31686335D01*
X113408706Y-31714291D01*
X113220500Y-31676548D01*
X112966500Y-31676548D01*
X112966500Y-30935395D01*
X112130105Y-30099000D01*
X109144388Y-30099000D01*
X109116170Y-29953561D01*
X109004339Y-29783318D01*
X108835512Y-29669359D01*
X108635800Y-29629308D01*
X107137200Y-29629308D01*
X106943501Y-29666890D01*
X106773258Y-29778721D01*
X106676060Y-29922716D01*
X106489295Y-29845165D01*
X106110367Y-29844835D01*
X105971059Y-29902395D01*
X105892839Y-29783318D01*
X105724012Y-29669359D01*
X105524300Y-29629308D01*
X104025700Y-29629308D01*
X103832001Y-29666890D01*
X103770430Y-29707335D01*
X103770430Y-29208730D01*
X103611680Y-29049980D01*
X102362000Y-29049980D01*
X102362000Y-29069980D01*
X102108000Y-29069980D01*
X102108000Y-29049980D01*
X100858320Y-29049980D01*
X100699570Y-29208730D01*
X100699570Y-30099000D01*
X99822000Y-30099000D01*
X99822000Y-27114500D01*
X101024297Y-27114500D01*
X100974871Y-27134973D01*
X100796243Y-27313602D01*
X100699570Y-27546991D01*
X100699570Y-28637230D01*
X100858320Y-28795980D01*
X102108000Y-28795980D01*
X102108000Y-28775980D01*
X102362000Y-28775980D01*
X102362000Y-28795980D01*
X103611680Y-28795980D01*
X103770430Y-28637230D01*
X103770430Y-27546991D01*
X103673757Y-27313602D01*
X103495129Y-27134973D01*
X103445702Y-27114500D01*
X106903997Y-27114500D01*
X106912088Y-27119961D01*
X107111800Y-27160012D01*
X110611920Y-27160012D01*
X110805619Y-27122430D01*
X110817691Y-27114500D01*
X112903477Y-27114500D01*
X112911568Y-27119961D01*
X113111280Y-27160012D01*
X116611400Y-27160012D01*
X116805099Y-27122430D01*
X116817171Y-27114500D01*
X119305000Y-27114500D01*
X119305000Y-41592500D01*
X119305000Y-41592500D01*
G37*
X119305000Y-41592500D02*
X119028014Y-41592500D01*
X119148405Y-41239345D01*
X119117633Y-40760356D01*
X118993533Y-40460752D01*
X118771046Y-40414759D01*
X118591441Y-40594364D01*
X118591441Y-40235154D01*
X118545448Y-40012667D01*
X118091145Y-39857795D01*
X117871240Y-39871922D01*
X117871240Y-37324610D01*
X117871240Y-37071991D01*
X117871240Y-36734750D01*
X117871240Y-36163250D01*
X117871240Y-35826009D01*
X117871240Y-35573390D01*
X117774567Y-35340001D01*
X117740565Y-35306000D01*
X117774567Y-35271999D01*
X117871240Y-35038610D01*
X117871240Y-34785991D01*
X117871240Y-34448750D01*
X117871240Y-33877250D01*
X117871240Y-33540009D01*
X117871240Y-33287390D01*
X117774567Y-33054001D01*
X117772315Y-33051750D01*
X117774567Y-33049499D01*
X117871240Y-32816110D01*
X117871240Y-32563491D01*
X117871240Y-32226250D01*
X117871240Y-31654750D01*
X117871240Y-31317509D01*
X117871240Y-31064890D01*
X117774567Y-30831501D01*
X117595938Y-30652873D01*
X117362549Y-30556200D01*
X116871750Y-30556200D01*
X116713000Y-30714950D01*
X116713000Y-31813500D01*
X117712490Y-31813500D01*
X117871240Y-31654750D01*
X117871240Y-32226250D01*
X117712490Y-32067500D01*
X116713000Y-32067500D01*
X116713000Y-32937450D01*
X116713000Y-33166050D01*
X116713000Y-34036000D01*
X117712490Y-34036000D01*
X117871240Y-33877250D01*
X117871240Y-34448750D01*
X117712490Y-34290000D01*
X116713000Y-34290000D01*
X116713000Y-35223450D01*
X116713000Y-35388550D01*
X116713000Y-36322000D01*
X117712490Y-36322000D01*
X117871240Y-36163250D01*
X117871240Y-36734750D01*
X117712490Y-36576000D01*
X116713000Y-36576000D01*
X116713000Y-37674550D01*
X116871750Y-37833300D01*
X117362549Y-37833300D01*
X117595938Y-37736627D01*
X117774567Y-37557999D01*
X117871240Y-37324610D01*
X117871240Y-39871922D01*
X117612156Y-39888567D01*
X117312552Y-40012667D01*
X117266559Y-40235154D01*
X117929000Y-40897595D01*
X118591441Y-40235154D01*
X118591441Y-40594364D01*
X118108605Y-41077200D01*
X118122747Y-41091342D01*
X117943142Y-41270947D01*
X117929000Y-41256805D01*
X117914857Y-41270947D01*
X117735252Y-41091342D01*
X117749395Y-41077200D01*
X117086954Y-40414759D01*
X116864467Y-40460752D01*
X116709595Y-40915055D01*
X116740367Y-41394044D01*
X116822570Y-41592500D01*
X116071452Y-41592500D01*
X116071452Y-41021000D01*
X116033870Y-40827301D01*
X115922039Y-40657058D01*
X115753212Y-40543099D01*
X115553500Y-40503048D01*
X115004477Y-40503048D01*
X115066827Y-40440699D01*
X115163500Y-40207310D01*
X115163500Y-39954691D01*
X115163500Y-39366750D01*
X115004750Y-39208000D01*
X114120500Y-39208000D01*
X114120500Y-39228000D01*
X113866500Y-39228000D01*
X113866500Y-39208000D01*
X113846500Y-39208000D01*
X113846500Y-38954000D01*
X113866500Y-38954000D01*
X113866500Y-38934000D01*
X114120500Y-38934000D01*
X114120500Y-38954000D01*
X115004750Y-38954000D01*
X115163500Y-38795250D01*
X115163500Y-38207309D01*
X115163500Y-37954690D01*
X115066827Y-37721301D01*
X115061777Y-37716252D01*
X115331240Y-37716252D01*
X115519215Y-37679780D01*
X115576062Y-37736627D01*
X115809451Y-37833300D01*
X116300250Y-37833300D01*
X116459000Y-37674550D01*
X116459000Y-36576000D01*
X116439000Y-36576000D01*
X116439000Y-36322000D01*
X116459000Y-36322000D01*
X116459000Y-35388550D01*
X116459000Y-35223450D01*
X116459000Y-34290000D01*
X116439000Y-34290000D01*
X116439000Y-34036000D01*
X116459000Y-34036000D01*
X116459000Y-33166050D01*
X116459000Y-32937450D01*
X116459000Y-32067500D01*
X116439000Y-32067500D01*
X116439000Y-31813500D01*
X116459000Y-31813500D01*
X116459000Y-30714950D01*
X116300250Y-30556200D01*
X115809451Y-30556200D01*
X115576062Y-30652873D01*
X115518194Y-30710740D01*
X115331240Y-30673248D01*
X114030760Y-30673248D01*
X113837061Y-30710830D01*
X113666818Y-30822661D01*
X113552859Y-30991488D01*
X113512808Y-31191200D01*
X113512808Y-31686366D01*
X113476367Y-31686335D01*
X113408706Y-31714291D01*
X113220500Y-31676548D01*
X112966500Y-31676548D01*
X112966500Y-30935395D01*
X112130105Y-30099000D01*
X109144388Y-30099000D01*
X109116170Y-29953561D01*
X109004339Y-29783318D01*
X108835512Y-29669359D01*
X108635800Y-29629308D01*
X107137200Y-29629308D01*
X106943501Y-29666890D01*
X106773258Y-29778721D01*
X106676060Y-29922716D01*
X106489295Y-29845165D01*
X106110367Y-29844835D01*
X105971059Y-29902395D01*
X105892839Y-29783318D01*
X105724012Y-29669359D01*
X105524300Y-29629308D01*
X104025700Y-29629308D01*
X103832001Y-29666890D01*
X103770430Y-29707335D01*
X103770430Y-29208730D01*
X103611680Y-29049980D01*
X102362000Y-29049980D01*
X102362000Y-29069980D01*
X102108000Y-29069980D01*
X102108000Y-29049980D01*
X100858320Y-29049980D01*
X100699570Y-29208730D01*
X100699570Y-30099000D01*
X99822000Y-30099000D01*
X99822000Y-27114500D01*
X101024297Y-27114500D01*
X100974871Y-27134973D01*
X100796243Y-27313602D01*
X100699570Y-27546991D01*
X100699570Y-28637230D01*
X100858320Y-28795980D01*
X102108000Y-28795980D01*
X102108000Y-28775980D01*
X102362000Y-28775980D01*
X102362000Y-28795980D01*
X103611680Y-28795980D01*
X103770430Y-28637230D01*
X103770430Y-27546991D01*
X103673757Y-27313602D01*
X103495129Y-27134973D01*
X103445702Y-27114500D01*
X106903997Y-27114500D01*
X106912088Y-27119961D01*
X107111800Y-27160012D01*
X110611920Y-27160012D01*
X110805619Y-27122430D01*
X110817691Y-27114500D01*
X112903477Y-27114500D01*
X112911568Y-27119961D01*
X113111280Y-27160012D01*
X116611400Y-27160012D01*
X116805099Y-27122430D01*
X116817171Y-27114500D01*
X119305000Y-27114500D01*
X119305000Y-41592500D01*
G36*
X109008860Y-25019000D02*
X108988860Y-25019000D01*
X108988860Y-25039000D01*
X108734860Y-25039000D01*
X108734860Y-25019000D01*
X106635550Y-25019000D01*
X106476800Y-25177750D01*
X106476800Y-26479500D01*
X103696496Y-26479500D01*
X103770430Y-26301009D01*
X103770430Y-25210770D01*
X103611680Y-25052020D01*
X102362000Y-25052020D01*
X102362000Y-25072020D01*
X102108000Y-25072020D01*
X102108000Y-25052020D01*
X100858320Y-25052020D01*
X100699570Y-25210770D01*
X100699570Y-26301009D01*
X100773503Y-26479500D01*
X99822000Y-26479500D01*
X99822000Y-26352500D01*
X99822000Y-25579605D01*
X100730952Y-24670652D01*
X100858320Y-24798020D01*
X102108000Y-24798020D01*
X102108000Y-24778020D01*
X102362000Y-24778020D01*
X102362000Y-24798020D01*
X103611680Y-24798020D01*
X103770430Y-24639270D01*
X103770430Y-23549031D01*
X103695444Y-23368000D01*
X106476800Y-23368000D01*
X106476800Y-24606250D01*
X106635550Y-24765000D01*
X108734860Y-24765000D01*
X108734860Y-24745000D01*
X108988860Y-24745000D01*
X108988860Y-24765000D01*
X109008860Y-24765000D01*
X109008860Y-25019000D01*
X109008860Y-25019000D01*
G37*
X109008860Y-25019000D02*
X108988860Y-25019000D01*
X108988860Y-25039000D01*
X108734860Y-25039000D01*
X108734860Y-25019000D01*
X106635550Y-25019000D01*
X106476800Y-25177750D01*
X106476800Y-26479500D01*
X103696496Y-26479500D01*
X103770430Y-26301009D01*
X103770430Y-25210770D01*
X103611680Y-25052020D01*
X102362000Y-25052020D01*
X102362000Y-25072020D01*
X102108000Y-25072020D01*
X102108000Y-25052020D01*
X100858320Y-25052020D01*
X100699570Y-25210770D01*
X100699570Y-26301009D01*
X100773503Y-26479500D01*
X99822000Y-26479500D01*
X99822000Y-26352500D01*
X99822000Y-25579605D01*
X100730952Y-24670652D01*
X100858320Y-24798020D01*
X102108000Y-24798020D01*
X102108000Y-24778020D01*
X102362000Y-24778020D01*
X102362000Y-24798020D01*
X103611680Y-24798020D01*
X103770430Y-24639270D01*
X103770430Y-23549031D01*
X103695444Y-23368000D01*
X106476800Y-23368000D01*
X106476800Y-24606250D01*
X106635550Y-24765000D01*
X108734860Y-24765000D01*
X108734860Y-24745000D01*
X108988860Y-24745000D01*
X108988860Y-24765000D01*
X109008860Y-24765000D01*
X109008860Y-25019000D01*
G36*
X92100449Y-63468848D02*
X92092058Y-63474361D01*
X92052462Y-63533020D01*
X91979750Y-63533020D01*
X91821000Y-63691770D01*
X91821000Y-63722830D01*
X91917673Y-63956219D01*
X91938048Y-63976593D01*
X91938048Y-64096900D01*
X91962344Y-64222125D01*
X91938048Y-64343280D01*
X91938048Y-64597280D01*
X91962344Y-64722505D01*
X91938048Y-64843660D01*
X91938048Y-64861440D01*
X91314044Y-64861440D01*
X90462100Y-64009496D01*
X90462100Y-60769207D01*
X90415697Y-60535924D01*
X90415697Y-60535923D01*
X90362767Y-60456708D01*
X90283553Y-60338155D01*
X89280544Y-59335147D01*
X89082776Y-59203002D01*
X88849492Y-59156599D01*
X87686236Y-59156599D01*
X86868000Y-58338362D01*
X86868000Y-56450893D01*
X87216343Y-56306961D01*
X87484520Y-56039253D01*
X87629835Y-55689295D01*
X87630165Y-55310367D01*
X87485461Y-54960157D01*
X87217753Y-54691980D01*
X86868000Y-54546750D01*
X86868000Y-48106382D01*
X86931705Y-48132835D01*
X87310633Y-48133165D01*
X87660843Y-47988461D01*
X87929020Y-47720753D01*
X88074335Y-47370795D01*
X88074665Y-46991867D01*
X87929961Y-46641657D01*
X87662253Y-46373480D01*
X87312295Y-46228165D01*
X86933367Y-46227835D01*
X86868000Y-46254844D01*
X86868000Y-45564732D01*
X87799682Y-44633049D01*
X88031660Y-44865433D01*
X88381618Y-45010748D01*
X88760546Y-45011078D01*
X89110756Y-44866374D01*
X89309464Y-44668013D01*
X90147567Y-44668013D01*
X90380851Y-44621610D01*
X90578619Y-44489465D01*
X91832667Y-43235416D01*
X91917673Y-43440639D01*
X91938048Y-43461013D01*
X91938048Y-43581320D01*
X91962344Y-43706545D01*
X91938048Y-43827700D01*
X91938048Y-43865964D01*
X91632515Y-43865698D01*
X91282305Y-44010402D01*
X91014128Y-44278110D01*
X90868813Y-44628068D01*
X90868483Y-45006996D01*
X91013187Y-45357206D01*
X91020214Y-45364245D01*
X90886980Y-45497247D01*
X90741665Y-45847205D01*
X90741335Y-46226133D01*
X90847254Y-46482477D01*
X90740264Y-46589281D01*
X90594949Y-46939239D01*
X90594619Y-47318167D01*
X90739323Y-47668377D01*
X91007031Y-47936554D01*
X91356989Y-48081869D01*
X91735917Y-48082199D01*
X91821000Y-48047043D01*
X91821000Y-48084742D01*
X91916248Y-48084742D01*
X91821000Y-48179990D01*
X91821000Y-48211050D01*
X91917673Y-48444439D01*
X91938048Y-48464813D01*
X91938048Y-48585120D01*
X91962344Y-48710345D01*
X91938048Y-48831500D01*
X91938048Y-49085500D01*
X91962344Y-49210725D01*
X91938048Y-49331880D01*
X91938048Y-49585880D01*
X91962344Y-49711105D01*
X91938048Y-49832260D01*
X91938048Y-50086260D01*
X91962344Y-50211485D01*
X91938048Y-50332640D01*
X91938048Y-50452946D01*
X91917673Y-50473321D01*
X91868391Y-50592296D01*
X91757295Y-50546165D01*
X91378367Y-50545835D01*
X91028157Y-50690539D01*
X90759980Y-50958247D01*
X90614665Y-51308205D01*
X90614335Y-51687133D01*
X90759039Y-52037343D01*
X90957400Y-52236051D01*
X90957400Y-52895500D01*
X91003803Y-53128784D01*
X91062352Y-53216409D01*
X91028157Y-53230539D01*
X90759980Y-53498247D01*
X90614665Y-53848205D01*
X90614335Y-54227133D01*
X90759039Y-54577343D01*
X91026747Y-54845520D01*
X91376705Y-54990835D01*
X91755633Y-54991165D01*
X91908771Y-54927889D01*
X91917673Y-54949379D01*
X91931354Y-54963060D01*
X91917673Y-54976741D01*
X91821000Y-55210130D01*
X91821000Y-55241190D01*
X91979750Y-55399940D01*
X92051948Y-55399940D01*
X92087461Y-55454002D01*
X92100449Y-55462768D01*
X92092058Y-55468281D01*
X92052462Y-55526940D01*
X91979750Y-55526940D01*
X91821000Y-55685690D01*
X91821000Y-55716750D01*
X91917673Y-55950139D01*
X91938048Y-55970513D01*
X91938048Y-56090820D01*
X91962344Y-56216045D01*
X91938048Y-56337200D01*
X91938048Y-56591200D01*
X91962344Y-56716425D01*
X91938048Y-56837580D01*
X91938048Y-57091580D01*
X91962344Y-57216805D01*
X91938048Y-57337960D01*
X91938048Y-57458266D01*
X91917673Y-57478641D01*
X91884892Y-57557780D01*
X91820795Y-57531165D01*
X91441867Y-57530835D01*
X91091657Y-57675539D01*
X90823480Y-57943247D01*
X90678165Y-58293205D01*
X90677835Y-58672133D01*
X90822539Y-59022343D01*
X91090247Y-59290520D01*
X91440205Y-59435835D01*
X91819133Y-59436165D01*
X91897389Y-59403830D01*
X91917673Y-59452799D01*
X91938048Y-59473173D01*
X91938048Y-59593480D01*
X91962344Y-59718705D01*
X91938048Y-59839860D01*
X91938048Y-60093860D01*
X91962344Y-60219085D01*
X91938048Y-60340240D01*
X91938048Y-60594240D01*
X91962344Y-60719465D01*
X91938048Y-60840620D01*
X91938048Y-60960926D01*
X91922814Y-60976159D01*
X91884295Y-60960165D01*
X91505367Y-60959835D01*
X91155157Y-61104539D01*
X90886980Y-61372247D01*
X90741665Y-61722205D01*
X90741335Y-62101133D01*
X90886039Y-62451343D01*
X91153747Y-62719520D01*
X91503705Y-62864835D01*
X91882633Y-62865165D01*
X91938048Y-62842267D01*
X91938048Y-62962446D01*
X91917673Y-62982821D01*
X91821000Y-63216210D01*
X91821000Y-63247270D01*
X91979750Y-63406020D01*
X92051948Y-63406020D01*
X92087461Y-63460082D01*
X92100449Y-63468848D01*
X92100449Y-63468848D01*
G37*
X92100449Y-63468848D02*
X92092058Y-63474361D01*
X92052462Y-63533020D01*
X91979750Y-63533020D01*
X91821000Y-63691770D01*
X91821000Y-63722830D01*
X91917673Y-63956219D01*
X91938048Y-63976593D01*
X91938048Y-64096900D01*
X91962344Y-64222125D01*
X91938048Y-64343280D01*
X91938048Y-64597280D01*
X91962344Y-64722505D01*
X91938048Y-64843660D01*
X91938048Y-64861440D01*
X91314044Y-64861440D01*
X90462100Y-64009496D01*
X90462100Y-60769207D01*
X90415697Y-60535924D01*
X90415697Y-60535923D01*
X90362767Y-60456708D01*
X90283553Y-60338155D01*
X89280544Y-59335147D01*
X89082776Y-59203002D01*
X88849492Y-59156599D01*
X87686236Y-59156599D01*
X86868000Y-58338362D01*
X86868000Y-56450893D01*
X87216343Y-56306961D01*
X87484520Y-56039253D01*
X87629835Y-55689295D01*
X87630165Y-55310367D01*
X87485461Y-54960157D01*
X87217753Y-54691980D01*
X86868000Y-54546750D01*
X86868000Y-48106382D01*
X86931705Y-48132835D01*
X87310633Y-48133165D01*
X87660843Y-47988461D01*
X87929020Y-47720753D01*
X88074335Y-47370795D01*
X88074665Y-46991867D01*
X87929961Y-46641657D01*
X87662253Y-46373480D01*
X87312295Y-46228165D01*
X86933367Y-46227835D01*
X86868000Y-46254844D01*
X86868000Y-45564732D01*
X87799682Y-44633049D01*
X88031660Y-44865433D01*
X88381618Y-45010748D01*
X88760546Y-45011078D01*
X89110756Y-44866374D01*
X89309464Y-44668013D01*
X90147567Y-44668013D01*
X90380851Y-44621610D01*
X90578619Y-44489465D01*
X91832667Y-43235416D01*
X91917673Y-43440639D01*
X91938048Y-43461013D01*
X91938048Y-43581320D01*
X91962344Y-43706545D01*
X91938048Y-43827700D01*
X91938048Y-43865964D01*
X91632515Y-43865698D01*
X91282305Y-44010402D01*
X91014128Y-44278110D01*
X90868813Y-44628068D01*
X90868483Y-45006996D01*
X91013187Y-45357206D01*
X91020214Y-45364245D01*
X90886980Y-45497247D01*
X90741665Y-45847205D01*
X90741335Y-46226133D01*
X90847254Y-46482477D01*
X90740264Y-46589281D01*
X90594949Y-46939239D01*
X90594619Y-47318167D01*
X90739323Y-47668377D01*
X91007031Y-47936554D01*
X91356989Y-48081869D01*
X91735917Y-48082199D01*
X91821000Y-48047043D01*
X91821000Y-48084742D01*
X91916248Y-48084742D01*
X91821000Y-48179990D01*
X91821000Y-48211050D01*
X91917673Y-48444439D01*
X91938048Y-48464813D01*
X91938048Y-48585120D01*
X91962344Y-48710345D01*
X91938048Y-48831500D01*
X91938048Y-49085500D01*
X91962344Y-49210725D01*
X91938048Y-49331880D01*
X91938048Y-49585880D01*
X91962344Y-49711105D01*
X91938048Y-49832260D01*
X91938048Y-50086260D01*
X91962344Y-50211485D01*
X91938048Y-50332640D01*
X91938048Y-50452946D01*
X91917673Y-50473321D01*
X91868391Y-50592296D01*
X91757295Y-50546165D01*
X91378367Y-50545835D01*
X91028157Y-50690539D01*
X90759980Y-50958247D01*
X90614665Y-51308205D01*
X90614335Y-51687133D01*
X90759039Y-52037343D01*
X90957400Y-52236051D01*
X90957400Y-52895500D01*
X91003803Y-53128784D01*
X91062352Y-53216409D01*
X91028157Y-53230539D01*
X90759980Y-53498247D01*
X90614665Y-53848205D01*
X90614335Y-54227133D01*
X90759039Y-54577343D01*
X91026747Y-54845520D01*
X91376705Y-54990835D01*
X91755633Y-54991165D01*
X91908771Y-54927889D01*
X91917673Y-54949379D01*
X91931354Y-54963060D01*
X91917673Y-54976741D01*
X91821000Y-55210130D01*
X91821000Y-55241190D01*
X91979750Y-55399940D01*
X92051948Y-55399940D01*
X92087461Y-55454002D01*
X92100449Y-55462768D01*
X92092058Y-55468281D01*
X92052462Y-55526940D01*
X91979750Y-55526940D01*
X91821000Y-55685690D01*
X91821000Y-55716750D01*
X91917673Y-55950139D01*
X91938048Y-55970513D01*
X91938048Y-56090820D01*
X91962344Y-56216045D01*
X91938048Y-56337200D01*
X91938048Y-56591200D01*
X91962344Y-56716425D01*
X91938048Y-56837580D01*
X91938048Y-57091580D01*
X91962344Y-57216805D01*
X91938048Y-57337960D01*
X91938048Y-57458266D01*
X91917673Y-57478641D01*
X91884892Y-57557780D01*
X91820795Y-57531165D01*
X91441867Y-57530835D01*
X91091657Y-57675539D01*
X90823480Y-57943247D01*
X90678165Y-58293205D01*
X90677835Y-58672133D01*
X90822539Y-59022343D01*
X91090247Y-59290520D01*
X91440205Y-59435835D01*
X91819133Y-59436165D01*
X91897389Y-59403830D01*
X91917673Y-59452799D01*
X91938048Y-59473173D01*
X91938048Y-59593480D01*
X91962344Y-59718705D01*
X91938048Y-59839860D01*
X91938048Y-60093860D01*
X91962344Y-60219085D01*
X91938048Y-60340240D01*
X91938048Y-60594240D01*
X91962344Y-60719465D01*
X91938048Y-60840620D01*
X91938048Y-60960926D01*
X91922814Y-60976159D01*
X91884295Y-60960165D01*
X91505367Y-60959835D01*
X91155157Y-61104539D01*
X90886980Y-61372247D01*
X90741665Y-61722205D01*
X90741335Y-62101133D01*
X90886039Y-62451343D01*
X91153747Y-62719520D01*
X91503705Y-62864835D01*
X91882633Y-62865165D01*
X91938048Y-62842267D01*
X91938048Y-62962446D01*
X91917673Y-62982821D01*
X91821000Y-63216210D01*
X91821000Y-63247270D01*
X91979750Y-63406020D01*
X92051948Y-63406020D01*
X92087461Y-63460082D01*
X92100449Y-63468848D01*
G36*
X93853000Y-51587400D02*
X93599000Y-51587400D01*
X93599000Y-51563270D01*
X93599000Y-51523900D01*
X93599000Y-51396900D01*
X93599000Y-51357530D01*
X93599000Y-51333400D01*
X93853000Y-51333400D01*
X93853000Y-51357530D01*
X93853000Y-51396900D01*
X93853000Y-51523900D01*
X93853000Y-51563270D01*
X93853000Y-51587400D01*
X93853000Y-51587400D01*
G37*
X93853000Y-51587400D02*
X93599000Y-51587400D01*
X93599000Y-51563270D01*
X93599000Y-51523900D01*
X93599000Y-51396900D01*
X93599000Y-51357530D01*
X93599000Y-51333400D01*
X93853000Y-51333400D01*
X93853000Y-51357530D01*
X93853000Y-51396900D01*
X93853000Y-51523900D01*
X93853000Y-51563270D01*
X93853000Y-51587400D01*
G36*
X96266000Y-51499106D02*
X95917657Y-51643039D01*
X95708770Y-51851560D01*
X95631000Y-51851560D01*
X95631000Y-51833778D01*
X95581265Y-51833778D01*
X95613449Y-51756080D01*
X95631000Y-51738530D01*
X95631000Y-51713710D01*
X95631000Y-51707470D01*
X95631000Y-51682650D01*
X95613449Y-51665099D01*
X95534327Y-51474081D01*
X95520645Y-51460400D01*
X95534327Y-51446719D01*
X95613449Y-51255700D01*
X95631000Y-51238150D01*
X95631000Y-51213330D01*
X95631000Y-51207090D01*
X95631000Y-51182270D01*
X95613449Y-51164719D01*
X95581265Y-51087022D01*
X95631000Y-51087022D01*
X95631000Y-51069240D01*
X96266000Y-51069240D01*
X96266000Y-51499106D01*
X96266000Y-51499106D01*
G37*
X96266000Y-51499106D02*
X95917657Y-51643039D01*
X95708770Y-51851560D01*
X95631000Y-51851560D01*
X95631000Y-51833778D01*
X95581265Y-51833778D01*
X95613449Y-51756080D01*
X95631000Y-51738530D01*
X95631000Y-51713710D01*
X95631000Y-51707470D01*
X95631000Y-51682650D01*
X95613449Y-51665099D01*
X95534327Y-51474081D01*
X95520645Y-51460400D01*
X95534327Y-51446719D01*
X95613449Y-51255700D01*
X95631000Y-51238150D01*
X95631000Y-51213330D01*
X95631000Y-51207090D01*
X95631000Y-51182270D01*
X95613449Y-51164719D01*
X95581265Y-51087022D01*
X95631000Y-51087022D01*
X95631000Y-51069240D01*
X96266000Y-51069240D01*
X96266000Y-51499106D01*
M02*
