M48
;DRILL file {kicad 0.201504081001+5582~22~ubuntu14.04.1-product} date jue 23 abr 2015 20:23:46 ART
;FORMAT={-:-/ absolute / inch / decimal}
FMAT,2
INCH,TZ
T1C0.012
T2C0.024
T3C0.025
T4C0.026
T5C0.030
T6C0.032
T7C0.039
T8C0.039
T9C0.040
T10C0.091
T11C0.126
%
G90
G05
M72
T1
X4.1925Y-1.655
X4.1925Y-1.7338
X4.1925Y-1.8125
X4.1925Y-1.8913
X4.1925Y-1.97
X4.2725Y-1.655
X4.2725Y-1.7338
X4.2725Y-1.8125
X4.2725Y-1.8913
X4.2725Y-1.97
X4.3525Y-1.655
X4.3525Y-1.7338
X4.3525Y-1.8125
X4.3525Y-1.8913
X4.3525Y-1.97
X4.4325Y-1.655
X4.4325Y-1.7338
X4.4325Y-1.8125
X4.4325Y-1.8913
X4.4325Y-1.97
X4.5125Y-1.655
X4.5125Y-1.7338
X4.5125Y-1.8125
X4.5125Y-1.8913
X4.5125Y-1.97
T2
X2.13Y-2.273
X2.13Y-2.332
T3
X1.59Y-3.446
X1.5954Y-2.9383
X1.6409Y-2.9296
X1.679Y-2.9042
X1.8283Y-3.4679
X1.838Y-3.075
X1.8443Y-3.428
X1.8524Y-1.592
X1.854Y-1.549
X1.8738Y-3.3323
X1.886Y-3.194
X1.9045Y-2.7571
X1.9045Y-3.391
X1.918Y-2.7995
X1.9375Y-2.145
X1.9384Y-1.9384
X1.966Y-2.803
X1.992Y-2.3939
X2.185Y-1.51
X2.185Y-2.229
X2.2109Y-2.6134
X2.2433Y-2.6417
X2.2595Y-2.9651
X2.276Y-2.92
X2.3025Y-1.5175
X2.303Y-1.44
X2.303Y-1.479
X2.3234Y-1.9807
X2.3264Y-2.2692
X2.3388Y-1.5175
X2.339Y-1.479
X2.34Y-1.44
X2.3499Y-2.9603
X2.3521Y-2.3422
X2.355Y-2.5975
X2.3575Y-2.0655
X2.3748Y-2.2832
X2.376Y-1.439
X2.377Y-1.478
X2.3781Y-1.5175
X2.3809Y-2.0172
X2.3975Y-2.6375
X2.4276Y-2.9589
X2.5025Y-2.9624
X2.506Y-1.307
X2.5063Y-1.0923
X2.5425Y-2.4025
X2.5425Y-2.58
X2.5475Y-2.0925
X2.5499Y-1.6124
X2.55Y-1.6925
X2.55Y-2.225
X2.5574Y-1.882
X2.5925Y-2.795
X2.6028Y-2.961
X2.6155Y-1.1735
X2.6425Y-2.1625
X2.6465Y-1.3626
X2.656Y-1.13
X2.6607Y-1.9229
X2.665Y-2.622
X2.666Y-1.261
X2.6725Y-1.6325
X2.69Y-2.7975
X2.6919Y-2.9633
X2.695Y-0.745
X2.7001Y-1.94
X2.71Y-2.3075
X2.715Y-2.3075
X2.7162Y-2.3828
X2.7175Y-2.23
X2.7425Y-1.715
X2.7475Y-1.64
X2.754Y-1.381
X2.7549Y-2.1719
X2.757Y-1.225
X2.7675Y-1.565
X2.77Y-1.68
X2.775Y-1.89
X2.775Y-1.9975
X2.8009Y-1.7212
X2.8125Y-1.6475
X2.8169Y-2.5817
X2.8175Y-1.6025
X2.8175Y-2.6325
X2.8515Y-1.164
X2.8715Y-0.8311
X2.8725Y-2.9597
X2.874Y-1.381
X2.8786Y-0.8735
X2.88Y-2.56
X2.8875Y-2.7975
X2.8885Y-1.2187
X2.894Y-1.1704
X2.91Y-2.595
X2.9225Y-1.9175
X2.925Y-1.8225
X2.925Y-2.0125
X2.925Y-2.3275
X2.925Y-2.53
X2.9275Y-1.73
X2.9275Y-2.265
X2.9275Y-2.485
X2.93Y-2.075
X2.955Y-2.6125
X2.9575Y-1.98
X2.9575Y-2.19
X2.9575Y-2.4525
X2.96Y-1.885
X2.96Y-2.235
X2.96Y-2.3575
X2.96Y-2.7975
X2.9625Y-1.7925
X2.9625Y-2.295
X2.9625Y-2.9675
X2.9925Y-2.425
X2.9993Y-1.0966
X3.0195Y-1.2541
X3.0208Y-1.2112
X3.025Y-2.075
X3.0275Y-2.4575
X3.0376Y-0.91
X3.04Y-0.8671
X3.0515Y-1.33
X3.06Y-1.1919
X3.06Y-2.0125
X3.0625Y-2.97
X3.073Y-3.438
X3.083Y-0.911
X3.092Y-2.795
X3.0975Y-1.9825
X3.1041Y-1.5615
X3.1068Y-3.4646
X3.14Y-0.8695
X3.1425Y-1.95
X3.1435Y-1.2335
X3.1475Y-1.6025
X3.1475Y-2.2025
X3.155Y-2.3575
X3.155Y-2.585
X3.17Y-0.835
X3.18Y-2.2325
X3.1825Y-2.7975
X3.1825Y-2.965
X3.185Y-1.385
X3.186Y-3.44
X3.1975Y-1.9175
X3.2Y-0.8925
X3.2Y-2.275
X3.205Y-1.0225
X3.23Y-0.825
X3.235Y-3.454
X3.2471Y-0.9583
X3.249Y-0.892
X3.2575Y-1.2425
X3.2593Y-1.0178
X3.315Y-1.8475
X3.3154Y-1.3422
X3.3175Y-2.795
X3.3225Y-2.17
X3.325Y-2.2975
X3.33Y-2.9625
X3.3575Y-2.335
X3.3576Y-1.863
X3.375Y-1.23
X3.38Y-1.3925
X3.405Y-2.795
X3.41Y-1.18
X3.4125Y-2.185
X3.43Y-1.8575
X3.435Y-2.3825
X3.435Y-2.4375
X3.4368Y-2.3038
X3.4375Y-2.025
X3.4476Y-1.8973
X3.45Y-1.055
X3.4516Y-0.9934
X3.4545Y-2.105
X3.4575Y-3.09
X3.4575Y-3.1375
X3.4575Y-3.185
X3.46Y-1.395
X3.4625Y-2.5025
X3.4625Y-2.5475
X3.477Y-3.377
X3.4779Y-3.2357
X3.4809Y-1.1982
X3.4823Y-1.7773
X3.4871Y-1.7346
X3.5Y-3.0925
X3.5Y-3.14
X3.5Y-3.185
X3.505Y-2.5025
X3.5075Y-2.545
X3.5075Y-2.585
X3.575Y-1.235
X3.5825Y-1.6425
X3.59Y-1.0765
X3.6042Y-1.8555
X3.605Y-2.0275
X3.605Y-2.1275
X3.605Y-2.5375
X3.6075Y-2.3025
X3.61Y-1.8125
X3.61Y-2.4375
X3.615Y-1.7645
X3.6322Y-1.0605
X3.6703Y-1.0803
X3.6961Y-1.0044
X3.7005Y-1.0497
X3.7595Y-1.1062
X3.7651Y-1.7804
X3.78Y-1.898
X3.78Y-1.74
X3.79Y-2.32
X3.7925Y-2.1875
X3.7975Y-2.065
X3.7975Y-2.44
X3.8084Y-2.5077
X3.8123Y-1.8627
X3.825Y-0.92
X3.885Y-1.036
X3.97Y-2.325
X3.9706Y-1.7898
X3.9717Y-2.435
X3.9735Y-2.1335
X3.975Y-1.72
X3.975Y-2.055
X4.007Y-2.1893
X4.0385Y-1.7927
X4.0415Y-1.6785
X4.0474Y-2.6892
X4.0508Y-2.1424
X4.0509Y-2.1893
X4.0734Y-2.0802
X4.0876Y-2.1893
X4.125Y-1.3425
X4.125Y-1.3825
X4.125Y-1.4225
X4.125Y-1.4625
X4.125Y-1.505
X4.1475Y-1.5386
X4.165Y-1.3425
X4.165Y-1.385
X4.165Y-1.425
X4.165Y-1.465
X4.165Y-1.505
X4.1774Y-2.4547
X4.185Y-1.2125
X4.2475Y-1.3425
X4.2475Y-1.3825
X4.2475Y-1.4225
X4.265Y-0.75
X4.265Y-1.46
X4.2848Y-1.38
X4.285Y-1.425
X4.3225Y-2.205
X4.475Y-1.285
X4.6425Y-1.2625
X4.6425Y-1.3475
X4.6425Y-1.4375
X4.6425Y-1.535
X4.6429Y-1.6172
T4
X1.4676Y-1.4372
X1.4676Y-1.5273
X1.4676Y-1.7076
X1.4676Y-1.7978
X1.4677Y-1.6175
X1.5267Y-1.4822
X1.5267Y-1.5724
X1.5267Y-1.6625
X1.5267Y-1.7527
X1.5267Y-1.8429
X1.5857Y-1.4372
X1.5857Y-1.5273
X1.5857Y-1.6176
X1.5857Y-1.7076
X1.5857Y-1.7978
T5
X1.405Y-2.3344
X1.405Y-2.5116
X1.405Y-2.6964
X1.405Y-2.8736
X1.503Y-2.285
X1.503Y-2.561
X1.503Y-2.647
X1.503Y-2.923
X3.5145Y-0.839
X3.5639Y-0.741
X3.7411Y-0.741
X3.7905Y-0.839
X3.862Y-0.839
X3.9114Y-0.741
X4.0886Y-0.741
X4.138Y-0.839
T6
X2.321Y-3.425
X2.421Y-3.425
X2.521Y-3.425
T7
X2.5725Y-3.07
X2.5725Y-3.17
X2.6725Y-3.07
X2.6725Y-3.17
X2.7725Y-3.07
X2.7725Y-3.17
X2.8725Y-3.07
X2.8725Y-3.17
X2.9725Y-3.07
X2.9725Y-3.17
T8
X4.2425Y-2.965
X4.2425Y-3.065
X4.2425Y-3.145
X4.2425Y-3.245
T9
X1.495Y-3.675
X1.595Y-3.675
X1.695Y-3.675
X1.795Y-3.675
X1.895Y-3.675
X1.995Y-3.675
X2.095Y-3.675
X2.195Y-3.675
X2.295Y-3.675
X2.395Y-3.675
X2.495Y-3.675
X2.595Y-3.675
X2.695Y-3.675
X2.795Y-3.675
X2.895Y-3.675
X2.995Y-3.675
X3.095Y-3.675
X3.195Y-3.675
X3.295Y-3.675
X3.395Y-3.675
X3.495Y-3.675
X3.595Y-3.675
X3.695Y-3.675
X3.795Y-3.675
X3.895Y-3.675
X3.995Y-3.675
X4.095Y-3.675
X4.195Y-3.675
X4.295Y-3.675
X4.395Y-3.675
X4.495Y-3.675
X4.595Y-3.675
T10
X4.3475Y-2.845
X4.3475Y-3.385
T11
X1.507Y-1.1362
X1.507Y-2.12
T8
X4.2859Y-1.0193G85X4.2859Y-0.9406
G05
X4.4433Y-0.795G85X4.3647Y-0.795
G05
X4.5221Y-1.0193G85X4.5221Y-0.9406
G05
T0
M30
